<?xml version="1.0" encoding="UTF-8" standalone="no"?>
<!-- Created with Inkscape (http://www.inkscape.org/) -->

<svg
   xmlns:dc="http://purl.org/dc/elements/1.1/"
   xmlns:cc="http://creativecommons.org/ns#"
   xmlns:rdf="http://www.w3.org/1999/02/22-rdf-syntax-ns#"
   xmlns:svg="http://www.w3.org/2000/svg"
   xmlns="http://www.w3.org/2000/svg"
   xmlns:sodipodi="http://sodipodi.sourceforge.net/DTD/sodipodi-0.dtd"
   xmlns:inkscape="http://www.inkscape.org/namespaces/inkscape"
   width="885.60022"
   height="264.05972"
   viewBox="0 0 234.31506 69.865811"
   version="1.1"
   id="svg23489"
   inkscape:version="0.48.5 r10040"
   sodipodi:docname="cloud_02.svg"
   tags="cloud, cloudy,clouds,puffy,smoke,vapour,cloudy sky,sky,puffy clouds,pufy cloud,rain,sun,weather">
  <defs
     id="defs23483" />
  <sodipodi:namedview
     id="base"
     pagecolor="#7d848b"
     bordercolor="#666666"
     borderopacity="1.0"
     inkscape:pageopacity="1"
     inkscape:pageshadow="2"
     inkscape:zoom="0.85235729"
     inkscape:cx="525.18916"
     inkscape:cy="-18.908184"
     inkscape:document-units="px"
     inkscape:current-layer="layer1"
     showgrid="false"
     inkscape:pagecheckerboard="false"
     showborder="true"
     units="px"
     inkscape:window-width="1920"
     inkscape:window-height="1017"
     inkscape:window-x="-8"
     inkscape:window-y="-8"
     inkscape:window-maximized="1"
     inkscape:showpageshadow="false"
     guidetolerance="28"
     fit-margin-top="15"
     fit-margin-left="15"
     fit-margin-right="15"
     fit-margin-bottom="15">
    <inkscape:grid
       type="xygrid"
       id="grid24034"
       spacingx="1px"
       spacingy="1px"
       empspacing="8"
       visible="true"
       enabled="true"
       snapvisiblegridlinesonly="true"
       originx="-112.06883px"
       originy="-1308.336px" />
  </sodipodi:namedview>
  <metadata
     id="metadata23486">
    <rdf:RDF>
      <cc:Work
         rdf:about="">
        <dc:format>image/svg+xml</dc:format>
        <dc:type
           rdf:resource="http://purl.org/dc/dcmitype/StillImage" />
        <dc:title></dc:title>
        <cc:license
           rdf:resource="" />
        <dc:creator>
          <cc:Agent>
            <dc:title>Robert Brooks</dc:title>
          </cc:Agent>
        </dc:creator>
      </cc:Work>
    </rdf:RDF>
  </metadata>
  <g
     inkscape:label="Layer 1"
     inkscape:groupmode="layer"
     id="layer1"
     transform="translate(-29.651558,119.02974)">
    <g
       id="g10494"
       transform="matrix(2.7237623,0,0,2.7237623,246.58292,-424.90229)">
      <g
         transform="translate(-86.553432,-63.210106)"
         id="g9353">
        <path
           gds_zero_stroke="12"
           style="opacity:0.98999999000000005;color:#000000;fill:#c3f1ff;fill-opacity:1;fill-rule:nonzero;stroke:#84d4f0;stroke-width:0;stroke-linecap:round;stroke-linejoin:round;stroke-miterlimit:4;stroke-opacity:1;stroke-dasharray:none;stroke-dashoffset:0;marker:none;visibility:visible;display:inline;overflow:visible;enable-background:accumulate"
           d="m 53.763413,186.01178 c -0.14818,0 -0.292661,0.0305 -0.42168,0.0827 -0.06451,0.0261 -0.124076,0.0538 -0.181901,0.0909 -0.28912,0.18595 -0.485349,0.50469 -0.51263,0.86817 -0.05991,-0.0662 -0.124023,-0.13016 -0.190169,-0.19017 -0.0016,-0.001 -0.0067,0.001 -0.0083,0 -0.201449,-0.18196 -0.428305,-0.33998 -0.677995,-0.45475 -0.0023,-10e-4 -0.006,0.001 -0.0083,0 -0.336402,-0.15351 -0.705861,-0.23978 -1.099675,-0.23978 -0.06552,0 -0.134207,0.004 -0.198437,0.008 -0.02482,0.002 -0.04979,0.006 -0.07441,0.008 -0.09077,0.009 -0.176856,0.0232 -0.264584,0.0413 -0.01123,0.002 -0.0219,0.006 -0.03307,0.008 -0.08201,0.0181 -0.160803,0.0406 -0.239778,0.0662 -1.08117,0.34479 -1.86862,1.35168 -1.86862,2.54661 0,1.45057 1.156406,2.62632 2.596224,2.67064 0.473361,1.05383 1.531464,1.79421 2.761588,1.79421 0.463582,0 0.897105,-0.11136 1.289844,-0.29766 0.495025,0.78273 1.361827,1.30638 2.356446,1.30638 0.664244,0 1.273201,-0.23277 1.752864,-0.62012 0.0076,-0.006 0.01726,-0.0103 0.02481,-0.0165 0.06602,-0.0545 0.129439,-0.11341 0.190169,-0.17364 0.0028,-0.003 0.0055,-0.005 0.0083,-0.008 0.06871,-0.0687 0.137145,-0.13945 0.198438,-0.21498 0.05008,-0.0619 0.09583,-0.13229 0.14056,-0.19844 0.01315,-0.0195 0.02867,-0.0381 0.04134,-0.0579 0.0367,-0.0573 0.06668,-0.11357 0.09922,-0.17364 0.0029,-0.005 0.0054,-0.0112 0.0083,-0.0165 0.08244,-0.1547 0.154181,-0.31756 0.206706,-0.48783 0.01882,-0.0605 0.03487,-0.11974 0.04961,-0.1819 0.0064,-0.0273 0.0109,-0.0551 0.01654,-0.0827 0.0022,-0.0109 0.0062,-0.0222 0.0083,-0.0331 0.01567,-0.0819 0.02471,-0.16382 0.03307,-0.24805 0.0095,-0.0939 0.01654,-0.18469 0.01654,-0.28112 0,-0.14769 -0.0108,-0.29676 -0.03307,-0.43822 -4.28e-4,-0.003 4.37e-4,-0.006 0,-0.008 -0.0019,-0.0115 -0.0063,-0.0216 -0.0083,-0.0331 -0.02279,-0.12945 -0.05913,-0.25769 -0.09922,-0.38034 -0.02111,-0.0646 -0.04053,-0.13601 -0.06615,-0.19843 -0.0014,-0.003 -0.0069,-0.005 -0.0083,-0.008 -0.13575,-0.32733 -0.327681,-0.61723 -0.570508,-0.86817 -0.04856,-0.0502 -0.09667,-0.10236 -0.148828,-0.14882 -0.20864,-0.18588 -0.445815,-0.33721 -0.702799,-0.45476 -0.06425,-0.0294 -0.131744,-0.0581 -0.198438,-0.0827 0.04098,-0.11213 0.07019,-0.22704 0.09095,-0.34727 0.02076,-0.12021 0.03307,-0.24575 0.03307,-0.37207 0,-0.2893 -0.05966,-0.56819 -0.165365,-0.81855 -0.05285,-0.12518 -0.115062,-0.24426 -0.190169,-0.35553 -0.149014,-0.22076 -0.341969,-0.41257 -0.56224,-0.56224 -0.0019,-10e-4 -0.0063,0.001 -0.0083,0 -0.109236,-0.0737 -0.224602,-0.13786 -0.347266,-0.19017 -0.0023,-9.7e-4 -0.006,9.5e-4 -0.0083,0 -0.250357,-0.10571 -0.520988,-0.16537 -0.810286,-0.16537 -0.478751,0 -0.920473,0.15974 -1.273308,0.42995 -0.149275,-0.22889 -0.382698,-0.40642 -0.65319,-0.47956 -0.0026,-6.8e-4 -0.0057,6.7e-4 -0.0083,0 -0.09119,-0.024 -0.182375,-0.0331 -0.28112,-0.0331 z m -25.896094,2.01745 c -0.07336,-0.001 -0.15028,0.004 -0.223242,0.008 -0.291852,0.0164 -0.578766,0.0728 -0.851628,0.17363 -0.341077,0.1261 -0.658359,0.31579 -0.93431,0.56224 -0.16606,-0.18499 -0.371374,-0.33949 -0.603581,-0.46302 -0.132951,-0.0707 -0.26626,-0.12428 -0.405143,-0.16537 -0.97218,-0.28757 -2.043237,0.13595 -2.538346,1.0666 -0.234097,0.44003 -0.307339,0.92437 -0.231511,1.3808 -0.381148,0.034 -0.732906,0.24881 -0.926041,0.61185 -0.03623,0.0681 -0.06937,0.13572 -0.09095,0.2067 -7.19e-4,0.002 7.04e-4,0.006 0,0.008 -0.02027,0.0684 -0.03408,0.13732 -0.04134,0.20671 -0.04859,0.435 0.158437,0.87134 0.545703,1.11621 -0.737126,0.18557 -1.40081,0.66514 -1.785938,1.38906 -0.03734,0.0702 -0.06857,0.1433 -0.09922,0.21498 -0.01774,0.0414 -0.03402,0.0822 -0.04961,0.12402 -0.01146,0.0308 -0.02279,0.06 -0.03307,0.0909 -0.01375,0.0413 -0.02962,0.0824 -0.04134,0.12402 -0.01752,0.0629 -0.02847,0.12675 -0.04134,0.19017 -0.246653,1.18287 0.293866,2.43033 1.413867,3.02617 1.333251,0.70929 2.984203,0.22683 3.728972,-1.07487 1.20006,0.0802 2.391599,-0.53128 2.993099,-1.66191 0.226679,-0.42609 0.342995,-0.87911 0.363802,-1.33118 0.961479,-0.0723 1.861834,-0.61545 2.348177,-1.52963 0.322906,-0.60696 0.407759,-1.27458 0.289388,-1.90169 -0.0026,-0.0139 -0.0054,-0.0274 -0.0083,-0.0413 -0.01741,-0.0854 -0.03294,-0.17285 -0.05788,-0.25632 -0.0017,-0.006 -0.0065,-0.0107 -0.0083,-0.0165 -0.02973,-0.0973 -0.05947,-0.19559 -0.09922,-0.28939 -0.0324,-0.0762 -0.07689,-0.14987 -0.115755,-0.22324 -0.01162,-0.0219 -0.02089,-0.0445 -0.03307,-0.0661 -0.04114,-0.0732 -0.08475,-0.14533 -0.132292,-0.21497 -0.01327,-0.0194 -0.02758,-0.0388 -0.04134,-0.0579 -0.05266,-0.0732 -0.105633,-0.13823 -0.165364,-0.20671 -0.01146,-0.0132 -0.02136,-0.0284 -0.03307,-0.0413 -0.0077,-0.009 -0.01698,-0.0164 -0.02481,-0.0248 -0.06712,-0.0726 -0.139789,-0.14056 -0.214974,-0.20671 -0.02174,-0.0191 -0.04374,-0.0394 -0.06615,-0.0579 -0.06384,-0.0528 -0.129311,-0.10106 -0.198437,-0.14882 -0.01118,-0.008 -0.02176,-0.0172 -0.03307,-0.0248 -0.08166,-0.0547 -0.167681,-0.10994 -0.256315,-0.15709 -0.06695,-0.0356 -0.138357,-0.0694 -0.206706,-0.0992 -0.0024,-0.001 -0.0059,10e-4 -0.0083,0 -0.353148,-0.15316 -0.716329,-0.23268 -1.083138,-0.23978 z m 51.337436,4.66328 c -0.08236,0.01 -0.166119,0.031 -0.248047,0.0579 -0.271158,0.0888 -0.48695,0.26104 -0.636654,0.47955 -0.170846,-0.13712 -0.404675,-0.18903 -0.628385,-0.11575 -0.167854,0.055 -0.302178,0.17083 -0.380339,0.31419 -0.01954,0.0358 -0.03685,0.0686 -0.04961,0.10749 -0.01276,0.0389 -0.01929,0.083 -0.02481,0.12402 -0.01102,0.082 -0.0043,0.16368 0.01654,0.24805 -0.09448,-0.0539 -0.194035,-0.0983 -0.297656,-0.13229 -0.310862,-0.10196 -0.657612,-0.10961 -0.992188,0 -0.05234,0.0171 -0.09954,0.036 -0.148828,0.0579 -0.02208,0.01 -0.04473,0.0224 -0.06615,0.0331 -0.122338,0.061 -0.239114,0.13617 -0.338997,0.22324 -0.0088,0.008 -0.01623,0.0169 -0.02481,0.0248 -0.05595,0.051 -0.10106,0.1074 -0.148828,0.16536 -0.33641,0.40816 -0.466109,0.97364 -0.289388,1.51309 0.26915,0.82158 1.135853,1.27557 1.95957,1.03352 0.463643,0.50904 1.204966,0.73262 1.901693,0.50437 0.262567,-0.086 0.481854,-0.23503 0.669727,-0.41342 0.425608,0.35148 1.015891,0.49048 1.579231,0.30593 0.369869,-0.12117 0.676598,-0.36041 0.876433,-0.66146 0.0013,-0.002 -0.0013,-0.006 0,-0.008 0.03342,-0.0508 0.06327,-0.10303 0.09095,-0.15709 0.0012,-0.002 -0.0012,-0.006 0,-0.008 0.02675,-0.0528 0.05338,-0.1017 0.07441,-0.1571 0.01744,-0.0459 0.02797,-0.0932 0.04134,-0.14056 0.01244,-0.0441 0.02428,-0.0872 0.03307,-0.13229 0.0017,-0.008 0.0067,-0.0163 0.0083,-0.0248 0.0036,-0.0196 0.0054,-0.0382 0.0083,-0.0579 0.0046,-0.032 0.0056,-0.0669 0.0083,-0.0992 0.0025,-0.0297 0.0074,-0.061 0.0083,-0.0909 7.44e-4,-0.0255 4.42e-4,-0.0488 0,-0.0744 -5.58e-4,-0.0374 -0.0051,-0.0699 -0.0083,-0.10748 -0.0039,-0.0474 -0.0084,-0.0931 -0.01654,-0.14056 -0.0028,-0.0164 -0.005,-0.0332 -0.0083,-0.0496 -0.0017,-0.008 -0.0064,-0.0164 -0.0083,-0.0248 -0.01202,-0.055 -0.02345,-0.11074 -0.04134,-0.16536 -0.223316,-0.68167 -0.852294,-1.12467 -1.529623,-1.14928 0.0048,-0.14223 -0.01101,-0.28685 -0.05788,-0.42995 -0.187878,-0.5735 -0.754647,-0.91838 -1.331185,-0.85163 z"
           id="path9280"
           inkscape:connector-curvature="0" />
        <g
           id="g9262"
           transform="translate(0,28.946073)">
          <g
             transform="matrix(0.56638643,-0.18554819,0.18554819,0.56638643,18.096643,85.183919)"
             id="g9238">
            <path
               style="opacity:0.98999999;color:#000000;fill:#c3f1ff;fill-opacity:1;fill-rule:nonzero;stroke:#b7bec8;stroke-width:0;stroke-linecap:round;stroke-linejoin:round;stroke-miterlimit:4;stroke-opacity:1;stroke-dasharray:none;stroke-dashoffset:0;marker:none;visibility:visible;display:inline;overflow:visible;enable-background:accumulate"
               d="m 53.762702,157.06511 c -0.592722,0 -1.072562,0.46024 -1.116211,1.0418 -0.489902,-0.54136 -1.19675,-0.8847 -1.984375,-0.8847 -1.478642,0 -2.678906,1.20026 -2.678906,2.67891 0,1.45057 1.156406,2.62631 2.596224,2.67063 0.473361,1.05383 1.531464,1.79421 2.761589,1.79421 0.463581,0 0.897104,-0.11136 1.289843,-0.29766 0.495025,0.78273 1.361827,1.30638 2.356446,1.30638 1.542931,0 2.794661,-1.25173 2.794661,-2.79466 0,-1.20354 -0.768434,-2.22799 -1.835547,-2.62103 0.08195,-0.22427 0.124024,-0.46669 0.124024,-0.71933 0,-1.1572 -0.934665,-2.09186 -2.091862,-2.09186 -0.478751,0 -0.920472,0.15973 -1.273308,0.42994 -0.200784,-0.30787 -0.5476,-0.51263 -0.942578,-0.51263 z"
               id="path9240"
               inkscape:connector-curvature="0" />
            <g
               id="g9242">
              <path
                 inkscape:connector-curvature="0"
                 style="opacity:0.76106196;color:#000000;fill:#def7ff;fill-opacity:1;fill-rule:nonzero;stroke:#b7bec8;stroke-width:0;stroke-linecap:round;stroke-linejoin:round;stroke-miterlimit:4;stroke-opacity:1;stroke-dasharray:none;stroke-dashoffset:0;marker:none;visibility:visible;display:inline;overflow:visible;enable-background:accumulate"
                 d="m 172.3125,-2.59375 c -2.24021,0 -4.05378,1.73947801 -4.21875,3.9375 C 166.24215,-0.70233499 163.5706,-2 160.59375,-2 c -1.98118,0 -3.81351,0.577512 -5.375,1.5625 6.44544,-1.804082 11.62476,2.9774038 12.875,4.40625 1.45178,1.6591793 1.34375,1.25 1.34375,1.25 0,0 -0.21606,-4.46160906 2.6875,-5.1875 2.90357,-0.72589094 3.4375,2.1875 3.4375,2.1875 0,0 1.03522,-2.38928184 6.53125,-0.9375 5.49603,1.4517819 3.3125,6.03125 3.3125,6.03125 0,0 -5.49708,0.9089366 -7.15625,3.8125 -1.65918,2.903564 0.1203,-1.018494 8.3125,-0.5 4.90793,0.310628 5.15084,8.933165 4.5,15.90625 2.43756,-1.93523 4,-4.928603 4,-8.28125 0,-4.548812 -2.90432,-8.4207445 -6.9375,-9.90625 0.30973,-0.8476346 0.46875,-1.7638902 0.46875,-2.71875 0,-4.3736692 -3.53259,-7.90625 -7.90625,-7.90625 -1.80945,0 -3.47895,0.6037339 -4.8125,1.625 -0.75887,-1.1636031 -2.06967,-1.9375 -3.5625,-1.9375 z"
                 transform="matrix(0.26458334,0,0,0.26458334,8.1723964,157.75197)"
                 id="path9244" />
            </g>
          </g>
          <g
             id="g9246"
             transform="matrix(0.4889742,-0.91912232,0.91912232,0.4889742,-149.49903,134.87389)">
            <path
               inkscape:connector-curvature="0"
               id="path9248"
               d="m 53.762702,157.06511 c -0.592722,0 -1.072562,0.46024 -1.116211,1.0418 -0.489902,-0.54136 -1.19675,-0.8847 -1.984375,-0.8847 -1.478642,0 -2.678906,1.20026 -2.678906,2.67891 0,1.45057 1.156406,2.62631 2.596224,2.67063 0.473361,1.05383 1.531464,1.79421 2.761589,1.79421 0.463581,0 0.897104,-0.11136 1.289843,-0.29766 0.495025,0.78273 1.361827,1.30638 2.356446,1.30638 1.542931,0 2.794661,-1.25173 2.794661,-2.79466 0,-1.20354 -0.768434,-2.22799 -1.835547,-2.62103 0.08195,-0.22427 0.124024,-0.46669 0.124024,-0.71933 0,-1.1572 -0.934665,-2.09186 -2.091862,-2.09186 -0.478751,0 -0.920472,0.15973 -1.273308,0.42994 -0.200784,-0.30787 -0.5476,-0.51263 -0.942578,-0.51263 z"
               style="opacity:0.98999999;color:#000000;fill:#c3f1ff;fill-opacity:1;fill-rule:nonzero;stroke:#b7bec8;stroke-width:0;stroke-linecap:round;stroke-linejoin:round;stroke-miterlimit:4;stroke-opacity:1;stroke-dasharray:none;stroke-dashoffset:0;marker:none;visibility:visible;display:inline;overflow:visible;enable-background:accumulate" />
            <g
               id="g9250">
              <path
                 id="path9252"
                 d="m 172.3125,-2.59375 c -2.24021,0 -4.05378,1.73947801 -4.21875,3.9375 C 166.24215,-0.70233499 163.5706,-2 160.59375,-2 c -1.98118,0 -3.81351,0.577512 -5.375,1.5625 6.44544,-1.804082 11.62476,2.9774038 12.875,4.40625 1.45178,1.6591793 1.34375,1.25 1.34375,1.25 0,0 -0.21606,-4.46160906 2.6875,-5.1875 2.90357,-0.72589094 3.4375,2.1875 3.4375,2.1875 0,0 1.03522,-2.38928184 6.53125,-0.9375 5.49603,1.4517819 3.3125,6.03125 3.3125,6.03125 0,0 -5.49708,0.9089366 -7.15625,3.8125 -1.65918,2.903564 -0.26717,-2.2275264 7.85734,-1.055639 6.41586,0.925429 9.32395,11.004664 4.95516,16.461889 2.43756,-1.93523 4,-4.928603 4,-8.28125 0,-4.548812 -2.90432,-8.4207445 -6.9375,-9.90625 0.30973,-0.8476346 0.46875,-1.7638902 0.46875,-2.71875 0,-4.3736692 -3.53259,-7.90625 -7.90625,-7.90625 -1.80945,0 -3.47895,0.6037339 -4.8125,1.625 -0.75887,-1.1636031 -2.06967,-1.9375 -3.5625,-1.9375 z"
                 style="opacity:0.76106196;color:#000000;fill:#def7ff;fill-opacity:1;fill-rule:nonzero;stroke:#b7bec8;stroke-width:0;stroke-linecap:round;stroke-linejoin:round;stroke-miterlimit:4;stroke-opacity:1;stroke-dasharray:none;stroke-dashoffset:0;marker:none;visibility:visible;display:inline;overflow:visible;enable-background:accumulate"
                 inkscape:connector-curvature="0"
                 sodipodi:nodetypes="scscscscscsscscsscs"
                 transform="matrix(0.26458334,0,0,0.26458334,8.1723964,157.75197)" />
            </g>
          </g>
          <g
             id="g9254">
            <path
               style="opacity:0.98999999;color:#000000;fill:#c3f1ff;fill-opacity:1;fill-rule:nonzero;stroke:#b7bec8;stroke-width:0;stroke-linecap:round;stroke-linejoin:round;stroke-miterlimit:4;stroke-opacity:1;stroke-dasharray:none;stroke-dashoffset:0;marker:none;visibility:visible;display:inline;overflow:visible;enable-background:accumulate"
               d="m 53.762702,157.06511 c -0.592722,0 -1.072562,0.46024 -1.116211,1.0418 -0.489902,-0.54136 -1.19675,-0.8847 -1.984375,-0.8847 -1.478642,0 -2.678906,1.20026 -2.678906,2.67891 0,1.45057 1.156406,2.62631 2.596224,2.67063 0.473361,1.05383 1.531464,1.79421 2.761589,1.79421 0.463581,0 0.897104,-0.11136 1.289843,-0.29766 0.495025,0.78273 1.361827,1.30638 2.356446,1.30638 1.542931,0 2.794661,-1.25173 2.794661,-2.79466 0,-1.20354 -0.768434,-2.22799 -1.835547,-2.62103 0.08195,-0.22427 0.124024,-0.46669 0.124024,-0.71933 0,-1.1572 -0.934665,-2.09186 -2.091862,-2.09186 -0.478751,0 -0.920472,0.15973 -1.273308,0.42994 -0.200784,-0.30787 -0.5476,-0.51263 -0.942578,-0.51263 z"
               id="path9256-1"
               inkscape:connector-curvature="0" />
            <g
               id="g9258">
              <path
                 style="opacity:0.98999999;color:#000000;fill:#def7ff;fill-opacity:1;fill-rule:nonzero;stroke:#b7bec8;stroke-width:0;stroke-linecap:round;stroke-linejoin:round;stroke-miterlimit:4;stroke-opacity:1;stroke-dasharray:none;stroke-dashoffset:0;marker:none;visibility:visible;display:inline;overflow:visible;enable-background:accumulate"
                 d="m 172.3125,-2.59375 c -2.24021,0 -4.05378,1.73947801 -4.21875,3.9375 C 166.24215,-0.70233499 163.5706,-2 160.59375,-2 c -1.98118,0 -3.81351,0.577512 -5.375,1.5625 6.44544,-1.804082 11.62476,2.9774038 12.875,4.40625 1.45178,1.6591793 1.34375,1.25 1.34375,1.25 0,0 -0.21606,-4.46160906 2.6875,-5.1875 2.90357,-0.72589094 3.4375,2.1875 3.4375,2.1875 0,0 1.03522,-2.38928184 6.53125,-0.9375 5.49603,1.4517819 3.3125,6.03125 3.3125,6.03125 0,0 -5.49708,0.9089366 -7.15625,3.8125 -1.65918,2.903564 0.1203,-1.018494 8.3125,-0.5 4.90793,0.310628 5.15084,8.933165 4.5,15.90625 2.43756,-1.93523 4,-4.928603 4,-8.28125 0,-4.548812 -2.90432,-8.4207445 -6.9375,-9.90625 0.30973,-0.8476346 0.46875,-1.7638902 0.46875,-2.71875 0,-4.3736692 -3.53259,-7.90625 -7.90625,-7.90625 -1.80945,0 -3.47895,0.6037339 -4.8125,1.625 -0.75887,-1.1636031 -2.06967,-1.9375 -3.5625,-1.9375 z"
                 transform="matrix(0.26458334,0,0,0.26458334,8.1723964,157.75197)"
                 id="path9260-1"
                 inkscape:connector-curvature="0" />
            </g>
          </g>
        </g>
      </g>
      <path
         gds_zero_stroke="12"
         sodipodi:nodetypes="scsscscccsscsccccccsssscccccccccccccccccscsccccccscccscscscccccccscscsccccccccccccccccccccccccccccscccsccccsccccccscccccccccccccccccccccccs"
         inkscape:connector-curvature="0"
         id="path9334"
         d="m -50.525368,114.34139 c -0.608512,0 -1.13397,0.34088 -1.413867,0.83509 -0.381601,-0.13547 -0.795642,-0.20671 -1.223698,-0.20671 -2.014382,0 -3.64629,1.63191 -3.64629,3.64629 0,0.77448 0.249813,1.48474 0.661459,2.07533 -2.029562,0.86165 -3.45612,2.87339 -3.45612,5.21725 0,0.64786 0.113949,1.27229 0.314192,1.85209 -0.548546,0.53628 0.169784,3.19809 -0.125792,3.91938 -0.384211,-0.25796 -4.504644,-1.71896 -4.810341,-0.73612 -0.178831,-0.0971 -0.385756,-0.15709 -0.603581,-0.15709 -0.697038,0 -1.256771,0.568 -1.256771,1.26504 0,0.0667 0.0066,0.12625 0.01654,0.19017 -0.22679,-0.0608 -0.45307,-0.11126 -0.677995,-0.1571 -0.138074,-0.0281 -0.275524,-0.0503 -0.413412,-0.0744 -0.0085,-0.001 -0.01628,-0.007 -0.02481,-0.008 -0.146334,-0.0252 -0.293713,-0.0481 -0.438216,-0.0662 -0.02486,-0.003 -0.04959,-0.005 -0.07441,-0.008 -0.119702,-0.0141 -0.236704,-0.0228 -0.355534,-0.0331 -0.05797,-0.005 -0.115883,-0.0124 -0.173632,-0.0165 -0.528588,-0.038 -1.048464,-0.038 -1.554428,-0.008 -0.04769,0.003 -0.09311,0.005 -0.14056,0.008 -0.120367,0.008 -0.236755,0.0212 -0.355534,0.0331 -0.01393,0.001 -0.02743,0.007 -0.04134,0.008 -0.06892,0.007 -0.138355,0.0166 -0.206705,0.0248 -0.06901,0.006 -0.139001,0.007 -0.206706,0.0165 -0.01368,0.002 -0.02769,0.006 -0.04134,0.008 -0.03299,0.006 -0.06604,0.0116 -0.09922,0.0165 -0.08902,0.0132 -0.176648,0.0264 -0.264583,0.0413 -0.03845,0.007 -0.07752,0.01 -0.115756,0.0165 -0.03607,0.007 -0.07148,0.018 -0.107487,0.0248 -0.01647,0.003 -0.03318,0.005 -0.04961,0.008 -0.03321,0.005 -0.06655,0.01 -0.09922,0.0165 -0.07174,0.0144 -0.144052,0.0341 -0.214974,0.0496 -0.07681,0.0168 -0.155694,0.0316 -0.23151,0.0496 -0.228191,0.0543 -0.451175,0.11745 -0.669727,0.1819 -0.06014,0.0177 -0.122537,0.0312 -0.181901,0.0496 -0.113317,0.0352 -0.228595,0.0699 -0.338997,0.10748 -0.0054,0.004 -0.01118,0.005 -0.01654,0.008 -0.107097,0.0366 -0.209974,0.0771 -0.314193,0.11576 -0.09542,0.0353 -0.188209,0.0706 -0.281119,0.10749 -0.02993,0.0115 -0.06155,0.0211 -0.09095,0.0331 -0.01118,0.005 -0.02193,0.012 -0.03307,0.0165 -0.03016,0.0143 -0.0604,0.0286 -0.09095,0.0414 -0.02512,0.0105 -0.04949,0.0225 -0.07442,0.0331 -0.0023,0.001 -0.0059,-10e-4 -0.0083,0 -0.03584,0.0134 -0.07229,0.0259 -0.107487,0.0413 -0.03038,0.0133 -0.06087,0.0271 -0.09095,0.0413 -0.0055,0.002 -0.01102,0.006 -0.01654,0.008 -0.0056,0.003 -0.011,0.006 -0.01654,0.008 -0.01099,0.005 -0.02214,0.0116 -0.03307,0.0165 -0.0115,0.005 -0.02162,0.0113 -0.03307,0.0165 -0.04417,0.0197 -0.08848,0.0372 -0.132292,0.0579 -0.05067,0.0239 -0.09914,0.0502 -0.148828,0.0744 -0.02181,0.0111 -0.04402,0.0221 -0.06615,0.0331 -0.06587,0.0327 -0.125779,0.0661 -0.190169,0.0992 -0.11663,0.0599 -0.236529,0.11971 -0.347266,0.1819 -0.0116,0.007 -0.02154,0.0183 -0.03307,0.0248 -0.0072,0.004 -0.01759,0.004 -0.0248,0.008 -0.0083,0.005 -0.01653,0.0118 -0.02481,0.0165 -0.01627,0.0114 -0.03228,0.023 -0.04961,0.0331 -0.06055,0.0355 -0.11603,0.0715 -0.173633,0.10748 -0.08284,0.0498 -0.16893,0.0978 -0.248047,0.14883 -0.0031,0.002 -0.0052,0.006 -0.0083,0.008 -0.0085,0.005 -0.01632,0.011 -0.02481,0.0165 -0.06663,0.0433 -0.135071,0.0806 -0.198438,0.12402 -0.01326,0.009 -0.02841,0.0158 -0.04134,0.0248 -0.05795,0.0402 -0.110069,0.0824 -0.165364,0.12402 -0.02137,0.0144 -0.04578,0.0262 -0.06615,0.0413 -0.0343,0.0255 -0.0665,0.0481 -0.09922,0.0744 -0.03952,0.0303 -0.07795,0.0608 -0.115755,0.0909 -0.03078,0.0246 -0.05363,0.0497 -0.08268,0.0744 -0.0029,0.002 -0.0054,0.006 -0.0083,0.008 -0.003,0.003 -0.0053,0.006 -0.0083,0.008 -0.01865,0.0143 -0.04089,0.027 -0.05788,0.0413 -0.06489,0.0551 -0.122465,0.10987 -0.181902,0.16536 -0.0027,0.003 -0.0056,0.006 -0.0083,0.008 -0.0096,0.009 -0.02365,0.016 -0.03307,0.0248 -0.02202,0.0209 -0.04525,0.0458 -0.06615,0.0661 -0.0054,0.005 -0.01117,0.0113 -0.01654,0.0165 -0.02481,0.0224 -0.05288,0.0441 -0.07441,0.0661 -0.0092,0.009 -0.01577,0.0237 -0.02481,0.0331 -0.04074,0.0425 -0.07934,0.0826 -0.115755,0.12403 -0.0038,0.004 -0.01284,0.004 -0.01654,0.008 -0.01103,0.0126 -0.02246,0.0289 -0.03307,0.0413 -0.02935,0.0348 -0.05656,0.0736 -0.08268,0.10748 -0.0046,0.006 -0.01213,0.0108 -0.01654,0.0165 -0.0087,0.0114 -0.01619,0.0224 -0.02481,0.0331 -0.0047,0.006 -0.01196,0.0102 -0.01654,0.0165 -0.006,0.008 -0.01092,0.0168 -0.01654,0.0248 -0.0037,0.005 -0.0046,0.0113 -0.0083,0.0165 -0.0056,0.008 -0.01131,0.017 -0.01654,0.0248 -0.0076,0.0115 -0.01762,0.0218 -0.02481,0.0331 -0.0034,0.005 -0.0053,0.0118 -0.0083,0.0165 -0.0065,0.0103 -0.01044,0.0229 -0.01654,0.0331 -0.01769,0.0294 -0.0352,0.0546 -0.04961,0.0827 -0.001,0.002 0.001,0.006 0,0.008 -0.0082,0.0161 -0.01749,0.0337 -0.02481,0.0496 -0.02365,0.0512 -0.04498,0.10203 -0.05788,0.14883 1.612407,0.62022 70.1694435,0.11866 80.1191485,0.0165 0.5493,-0.006 1.66114,-0.0136 1.82728,-0.0165 -0.83541,-0.29042 -1.17561,-0.39647 -1.50482,-0.4961 -0.33265,-0.10047 -0.68258,-0.20366 -1.620565,-0.51263 0.31776,-0.28797 0.52089,-0.68504 0.52089,-1.12448 0,-0.51095 -0.27114,-0.96612 -0.68626,-1.25677 -0.0165,-0.0116 -0.0326,-0.022 -0.0496,-0.0331 -0.0375,-0.0244 -0.0762,-0.0444 -0.11575001,-0.0662 -0.11625,-0.0638 -0.23972,-0.11842 -0.37207,-0.15709 -0.12909,-1.51737 -1.40098,-2.71198 -2.95175999,-2.71198 -1.27344,0 -1.80199,0.80727 -2.22112,1.93476 -0.16657,-0.0429 -1.17509,2.72892 -2.16875,2.4697 -0.4945,-0.12902 -6.4713005,-3.281 -12.0887205,-4.40446 -0.0223,-0.005 -0.0438,-0.0119 -0.0661,-0.0165 -1.16465,-0.24037 -9.51284,-1.79569 -12.52637,-0.0488 0,-2.4245 -1.32645,-3.50144 -2.35645,-3.22545 -1.05966,-3.74549 -4.49762,-6.49056 -8.582419,-6.49056 -0.532072,0 -1.056225,0.0513 -1.562695,0.14056 -0.207378,-0.46128 -0.469856,-0.89555 -0.777214,-1.28984 -0.01548,-0.0199 -0.03389,-0.0382 -0.04961,-0.0579 -0.05217,-0.0653 -0.102423,-0.12704 -0.157097,-0.19017 -0.03047,-0.0352 -0.05972,-0.073 -0.09095,-0.10749 -0.04076,-0.045 -0.08199,-0.0885 -0.124024,-0.13229 -0.04911,-0.0513 -0.09802,-0.0992 -0.148828,-0.14883 -0.02445,-0.0238 -0.04957,-0.051 -0.07441,-0.0744 -0.07184,-0.0678 -0.148265,-0.13405 -0.223242,-0.19844 -0.006,-0.005 -0.01058,-0.0114 -0.01654,-0.0165 -0.193841,-0.16523 -0.398748,-0.31376 -0.611849,-0.45476 -0.05548,-0.0368 -0.108675,-0.0725 -0.165364,-0.10748 -0.127702,-0.0789 -0.255048,-0.15346 -0.388607,-0.22325 -0.05689,-0.0297 -0.115742,-0.0546 -0.173633,-0.0827 -0.102521,-0.0496 -0.208658,-0.10471 -0.314193,-0.14883 -0.0912,-0.0381 -0.187804,-0.0737 -0.28112,-0.10748 -0.03243,-0.0117 -0.06654,-0.0219 -0.09922,-0.0331 -0.07167,-0.0246 -0.142161,-0.044 -0.214974,-0.0661 -0.05518,-0.0167 -0.109548,-0.0344 -0.165365,-0.0496 -0.04914,-0.0134 -0.09922,-0.0291 -0.148828,-0.0413 -0.02998,-0.007 -0.0608,-0.01 -0.09095,-0.0165 -0.07655,-0.0177 -0.153916,-0.0347 -0.23151,-0.0496 -0.108858,-0.0208 -0.219956,-0.0428 -0.330729,-0.0579 -0.01283,-0.88897 -0.745086,-1.6123 -1.63711,-1.6123 z"
         style="color:#000000;fill:#c3f1ff;fill-opacity:1;fill-rule:nonzero;stroke:#84d4f0;stroke-width:0;stroke-linecap:round;stroke-linejoin:round;stroke-miterlimit:4;stroke-opacity:1;stroke-dasharray:none;stroke-dashoffset:0;marker:none;visibility:visible;display:inline;overflow:visible;enable-background:accumulate" />
      <path
         sodipodi:nodetypes="scsscsccscssccccscscsccscsccs"
         inkscape:connector-curvature="0"
         id="path9083"
         d="m -50.525368,114.34139 c -0.608512,0 -1.13397,0.34088 -1.413867,0.83509 -0.381601,-0.13547 -0.795642,-0.20671 -1.223698,-0.20671 -2.014382,0 -3.64629,1.63191 -3.64629,3.64629 0,0.77448 0.249813,1.48474 0.661459,2.07533 -2.029562,0.86165 -3.45612,2.87339 -3.45612,5.21725 0,0.64786 0.113949,1.27229 0.314192,1.85209 -0.548546,0.53628 -0.994267,1.1804 -1.289844,1.90169 -0.38421,-0.25796 -0.841901,-0.41341 -1.339453,-0.41341 -1.08344,0 -2.001139,0.71214 -2.306836,1.69498 -0.178831,-0.0971 -0.385756,-0.15709 -0.603581,-0.15709 -0.697038,0 -1.256771,0.568 -1.256771,1.26504 0,0.0667 0.0066,0.12625 0.01654,0.19017 -5.840075,-1.56485 -11.147099,1.96053 -11.534181,3.36517 1.701425,0.65446 78.7711095,0.0559 81.9464245,0 -1.71363,-0.59572 -1.24941,-0.3908 -3.125385,-1.00873 0.31776,-0.28797 0.52089,-0.68504 0.52089,-1.12448 0,-0.70833 -0.5178,-1.30681 -1.22369001,-1.51308 -0.12909,-1.51737 -1.40098,-2.71198 -2.95175999,-2.71198 -1.27344,0 -2.35073,0.80727 -2.76986,1.93476 -0.16657,-0.0429 -0.34095,-0.0661 -0.5209,-0.0661 -0.72224,0 -1.35384,0.36815 -1.72806,0.92604 -7.5311405,-2.07309 -17.1250605,-4.31315 -24.0522805,-4.50619 0,-0.9429 -0.76862,-1.70325 -1.71152,-1.70325 -0.22926,0 -0.4452,0.0421 -0.64493,0.12402 -1.05966,-3.74549 -4.49762,-6.49056 -8.582415,-6.49056 -0.532072,0 -1.056225,0.0513 -1.562695,0.14056 -0.871464,-1.93843 -2.696878,-3.35682 -4.878256,-3.65456 -0.01283,-0.88897 -0.745086,-1.6123 -1.63711,-1.6123 z"
         style="color:#000000;fill:#c3f1ff;fill-opacity:1;fill-rule:nonzero;stroke:#b7bec8;stroke-width:0;stroke-linecap:round;stroke-linejoin:round;stroke-miterlimit:4;stroke-opacity:1;stroke-dashoffset:0;marker:none;visibility:visible;display:inline;overflow:visible;enable-background:accumulate" />
      <path
         inkscape:connector-curvature="0"
         id="path9116"
         d="m -26.324259,130.00968 c -1.6445,-0.0196 -3.35857,0.73257 -3.12539,2.37299 -0.63982,-0.0295 -1.01315,0.33983 -1.08314,0.76067 -10.46578,0.76157 -26.44074,2.27121 -35.040758,1.84382 -6.14185,-0.30523 -10.439305,-0.51094 -7.573698,-2.45567 -0.113132,0.0385 -0.220796,0.0833 -0.33073,0.12403 -0.125176,0.0464 -0.251233,0.0915 -0.37207,0.14056 -0.04241,0.0172 -0.08217,0.0404 -0.124023,0.0579 -0.06378,0.0267 -0.127704,0.0471 -0.19017,0.0744 -0.04162,0.0182 -0.08299,0.0394 -0.124023,0.0579 -0.120085,0.054 -0.2324,0.1093 -0.347266,0.16536 -0.210924,0.10294 -0.411367,0.20624 -0.603581,0.31419 -0.0272,0.0153 -0.05587,0.0343 -0.08268,0.0496 -0.170446,0.0976 -0.325528,0.1981 -0.479557,0.29766 -0.08953,0.0579 -0.180878,0.10729 -0.264584,0.16537 -0.112648,0.0782 -0.220803,0.16196 -0.322461,0.23977 -0.03614,0.0277 -0.07278,0.0551 -0.107487,0.0827 -0.0045,0.004 -0.01203,0.005 -0.01654,0.008 -0.128109,0.10222 -0.239682,0.20657 -0.347266,0.30593 -0.0096,0.009 -0.02365,0.016 -0.03307,0.0248 -0.02835,0.0266 -0.05587,0.0564 -0.08268,0.0827 -0.03342,0.0328 -0.06824,0.067 -0.09922,0.0992 -0.04074,0.0425 -0.07934,0.0826 -0.115755,0.12403 -0.01488,0.0168 -0.03545,0.0329 -0.04961,0.0496 -0.02935,0.0348 -0.05656,0.0736 -0.08268,0.10748 -0.03494,0.0453 -0.07019,0.0889 -0.09922,0.1323 -0.01046,0.0156 -0.02339,0.0343 -0.03307,0.0496 -0.0065,0.0103 -0.01044,0.0229 -0.01654,0.0331 -0.02922,0.0486 -0.05344,0.095 -0.07441,0.14056 -0.0015,0.003 -0.0068,0.005 -0.0083,0.008 -0.0213,0.0474 -0.03762,0.097 -0.04961,0.14056 1.701425,0.65446 78.7711095,0.0559 81.9464245,0 -1.21695,-0.42306 -1.35424,-0.44798 -1.99265,-0.64493 -0.0601,0.009 -0.11993,0.0116 -0.1819,0.0248 -3.02523501,0.64584 -15.8415555,-1.60823 -22.6549455,-2.14974 -0.0998,-1.05544 -1.39606,-1.62218 -2.75332,-0.95085 -0.1064,-0.28379 -0.2722,-0.59481 -0.53743,-0.93431 -0.47158,-0.60361 -1.49654,-0.93003 -2.54662,-0.94258 z"
         style="opacity:0.46902651;color:#000000;fill:#84d4f0;fill-opacity:1;fill-rule:nonzero;stroke:#b7bec8;stroke-width:0;stroke-linecap:round;stroke-linejoin:round;stroke-miterlimit:4;stroke-opacity:1;stroke-dasharray:none;stroke-dashoffset:0;marker:none;visibility:visible;display:inline;overflow:visible;enable-background:accumulate" />
      <path
         inkscape:connector-curvature="0"
         id="path9127"
         d="m -50.525368,114.34139 c -0.608512,0 -1.13397,0.34088 -1.413867,0.83509 -0.381601,-0.13547 -0.795642,-0.20671 -1.223698,-0.20671 -2.014382,0 -3.64629,1.63191 -3.64629,3.64629 0,0.77448 0.249813,1.48474 0.661459,2.07533 -2.029562,0.86165 -3.45612,2.87339 -3.45612,5.21725 0,0.64786 0.113949,1.27229 0.314192,1.85209 -0.548546,0.53628 -0.994267,1.1804 -1.289844,1.90169 -0.38421,-0.25796 -0.841901,-0.41341 -1.339453,-0.41341 -1.08344,0 -2.001139,0.71214 -2.306836,1.69498 -0.178831,-0.0971 -0.385756,-0.15709 -0.603581,-0.15709 -0.697038,0 -1.256771,0.568 -1.256771,1.26504 0,0.0667 0.0066,0.12625 0.01654,0.19017 -0.183483,-0.0492 -0.363412,-0.093 -0.545704,-0.1323 -0.044,-0.01 -0.08837,-0.0159 -0.132291,-0.0248 -0.29318,-0.0598 -0.587426,-0.11279 -0.876433,-0.14883 -0.02486,-0.003 -0.04959,-0.005 -0.07441,-0.008 -0.119702,-0.0141 -0.236704,-0.0228 -0.355534,-0.0331 -0.05797,-0.005 -0.115883,-0.0124 -0.173632,-0.0165 -0.04478,-0.003 -0.08765,-0.006 -0.132292,-0.008 -0.131009,-0.008 -0.258866,-0.013 -0.388607,-0.0165 -0.17395,-0.005 -0.349462,-0.003 -0.520898,0 -0.173461,0.003 -0.34202,0.007 -0.512631,0.0165 -0.04769,0.003 -0.09311,0.005 -0.14056,0.008 -0.119301,0.008 -0.237794,0.0214 -0.355534,0.0331 -0.01393,0.001 -0.02743,0.007 -0.04134,0.008 -0.137992,0.0142 -0.277731,0.0228 -0.413411,0.0413 -0.04737,0.006 -0.09348,0.0178 -0.14056,0.0248 -0.08902,0.0132 -0.176648,0.0264 -0.264583,0.0413 -0.075,0.0128 -0.149067,0.0273 -0.223243,0.0413 -0.04938,0.009 -0.09982,0.015 -0.148828,0.0248 -0.07174,0.0144 -0.144052,0.0341 -0.214974,0.0496 -0.07681,0.0168 -0.155694,0.0316 -0.23151,0.0496 -0.07539,0.0179 -0.148868,0.0388 -0.223242,0.0579 -0.150731,0.0387 -0.300142,0.0809 -0.446485,0.12403 -0.06014,0.0177 -0.122537,0.0312 -0.181901,0.0496 -0.08498,0.0264 -0.172967,0.0549 -0.256315,0.0827 -0.141687,0.0472 -0.276648,0.0981 -0.413412,0.14883 -0.09542,0.0353 -0.188209,0.0706 -0.281119,0.10749 -0.192463,0.0765 -0.381128,0.15763 -0.56224,0.23977 -0.05616,0.0255 -0.110347,0.0485 -0.165365,0.0744 -0.07405,0.0349 -0.143048,0.0718 -0.214974,0.10748 -0.206718,0.10249 -0.407051,0.20704 -0.595312,0.3142 -0.02637,0.015 -0.04843,0.0345 -0.07441,0.0496 -0.147554,0.0856 -0.286711,0.16928 -0.42168,0.25631 -0.102294,0.066 -0.202965,0.13222 -0.297656,0.19844 -0.06955,0.0486 -0.141399,0.092 -0.206706,0.14056 -0.109014,0.081 -0.209189,0.16805 -0.305925,0.24805 -0.02031,0.0168 -0.0464,0.0329 -0.06615,0.0496 -0.103506,0.0879 -0.201703,0.17937 -0.289389,0.26458 -0.02829,0.0275 -0.06436,0.0555 -0.09095,0.0827 -0.0092,0.009 -0.01577,0.0237 -0.02481,0.0331 -0.04455,0.0464 -0.09292,0.0872 -0.132291,0.1323 -0.01106,0.0126 -0.02243,0.0288 -0.03307,0.0413 -0.03455,0.0408 -0.06914,0.0845 -0.09922,0.12402 -0.01977,0.026 -0.04006,0.0491 -0.05788,0.0744 -0.0175,0.025 -0.03405,0.0501 -0.04961,0.0744 -0.0303,0.0473 -0.05159,0.096 -0.07441,0.14056 1.915312,-2.54617 9.199194,-3.40818 11.600327,-2.48047 2.414452,0.93286 2.571419,1.0418 2.571419,1.0418 l -1.860352,-1.70326 c 0,0 -0.003,-0.76894 0.545704,-0.76894 0.548739,0 0.438216,0.16536 0.438216,0.16536 l 0.438216,0.99219 c 0,0 0.06156,-1.10039 1.488282,-1.86862 1.426721,-0.76824 1.752864,-0.33073 1.752864,-0.33073 0.185409,2.11823 1.111369,2.86292 1.86862,3.13366 0,0 -1.100481,-2.25187 -0.05788,-4.11758 1.042604,-1.86571 3.017904,-1.4304 3.017904,-1.4304 0,0 -2.74586,-0.65378 -1.703256,-3.83646 0.837442,-2.55641 3.45612,-2.19935 3.45612,-2.19935 -0.329243,-5.87151 7.249685,-4.44088 8.127671,-2.79466 0.354332,0.66437 0.492191,0.80776 0.529166,0.83509 -3.068968,1.40492 -2.642007,2.22719 -3.960482,3.34036 1.252667,-0.95943 3.518821,-2.7915 8.251696,-2.09186 5.41953,0.80115 6.36653,6.03581 6.36653,6.03581 0,0 0.93428,-0.71559 1.53789,-0.4961 0.60362,0.2195 0.82683,0.60358 0.82683,0.60358 0,0 -5.10648,0.16973 -10.484117,2.9683 -5.377644,2.79857 -5.37435,3.12539 -5.37435,3.12539 0,0 10.095027,-5.32025 19.149217,-4.93613 9.0542,0.38411 22.0017605,4.33255 22.0017605,4.33255 0,0 0.33367,-0.82156 1.59577,-0.87643 1.2621,-0.0549 1.53789,0.16536 1.53789,0.16536 0,0 -0.32859,-1.43189 1.97611,-1.76113 2.30469999,-0.32924 1.69498999,1.32292 1.69498999,1.32292 l -1.75286999,0.87643 c 0,0 1.31910999,-0.44051 2.30683999,0.27285 0.98773001,0.71336 0.38486,1.53489 0.16536,1.48001 -0.21949,-0.0549 -2.19934999,0.22325 -2.19934999,0.22325 0,0 3.03364,0.78654 4.183725,0.99218 0.5493,-0.006 1.66114,-0.0136 1.82728,-0.0165 -1.71363,-0.59572 -1.24941,-0.3908 -3.125385,-1.00873 0.31776,-0.28797 0.52089,-0.68504 0.52089,-1.12448 0,-0.35416 -0.12957,-0.67863 -0.34726,-0.94258 -0.0544,-0.066 -0.1171,-0.13257 -0.1819,-0.19016 -0.19443,-0.17278 -0.42982001,-0.30299 -0.69453001,-0.38034 -0.12909,-1.51737 -1.40098,-2.71198 -2.95175999,-2.71198 -1.27344,0 -2.35073,0.80727 -2.76986,1.93476 -0.16657,-0.0429 -0.34095,-0.0661 -0.5209,-0.0661 -0.18056,0 -0.35427,0.0229 -0.5209,0.0661 -0.0833,0.0216 -0.16919,0.0513 -0.24804,0.0827 -0.39426,0.15689 -0.72523,0.42853 -0.95912,0.77721 -5.6483505,-1.55481 -12.4561505,-3.20146 -18.4298805,-4.01009 -0.49781,-0.0674 -0.98669,-0.13499 -1.47175,-0.19017 -1.45518,-0.16553 -2.8518,-0.26973 -4.15065,-0.30593 0,-0.9429 -0.76862,-1.70325 -1.71152,-1.70325 -0.22926,0 -0.4452,0.0421 -0.64493,0.12402 -1.05966,-3.74549 -4.49762,-6.49056 -8.582416,-6.49056 -0.532072,0 -1.056225,0.0513 -1.562695,0.14056 -0.108932,-0.2423 -0.234495,-0.47792 -0.372071,-0.7028 -0.06879,-0.11244 -0.139464,-0.22308 -0.214974,-0.33073 -0.981638,-1.39937 -2.518841,-2.37912 -4.291211,-2.62103 -0.01283,-0.88897 -0.745086,-1.6123 -1.63711,-1.6123 z"
         style="color:#000000;fill:#def7ff;fill-opacity:1;fill-rule:nonzero;stroke:#b7bec8;stroke-width:0;stroke-linecap:round;stroke-linejoin:round;stroke-miterlimit:4;stroke-opacity:1;stroke-dasharray:none;stroke-dashoffset:0;marker:none;visibility:visible;display:inline;overflow:visible;enable-background:accumulate" />
      <path
         inkscape:connector-curvature="0"
         id="path9132"
         d="m -41.592089,124.30475 c -1.848699,0 -3.349784,1.49157 -3.349784,3.34027 0,0.0995 0.01053,0.19767 0.01902,0.29501 0.171418,-1.68793 1.597596,-3.00719 3.330754,-3.00719 1.73316,0 3.14982,1.31926 3.32124,3.00719 0.008,-0.0973 0.019,-0.19546 0.019,-0.29501 0,-1.8487 -1.49157,-3.34027 -3.34027,-3.34027 z"
         style="color:#000000;fill:#def7ff;fill-opacity:1;fill-rule:nonzero;stroke:#b7bec8;stroke-width:0;stroke-linecap:round;stroke-linejoin:round;stroke-miterlimit:4;stroke-opacity:1;stroke-dasharray:none;stroke-dashoffset:0;marker:none;visibility:visible;display:inline;overflow:visible;enable-background:accumulate" />
      <path
         inkscape:connector-curvature="0"
         id="path9137"
         d="m -38.709459,122.26132 c -0.3871,0.0178 -0.77824,0.12653 -1.15149,0.32356 -0.76365,0.4031 -1.29834,1.12244 -1.55118,1.95086 0.1442,0.0307 0.27744,0.0666 0.40921,0.10474 0.29076,-0.63248 0.7613,-1.16756 1.37988,-1.49409 1.39968,-0.73886 3.05427,-0.15004 3.83512,1.30376 -0.0302,-0.0917 -0.0668,-0.17642 -0.10468,-0.26646 -0.52771,-1.25422 -1.65558,-1.97578 -2.81686,-1.92232 z"
         style="color:#000000;fill:#def7ff;fill-opacity:1;fill-rule:nonzero;stroke:#b7bec8;stroke-width:0;stroke-linecap:round;stroke-linejoin:round;stroke-miterlimit:4;stroke-opacity:1;stroke-dasharray:none;stroke-dashoffset:0;marker:none;visibility:visible;display:inline;overflow:visible;enable-background:accumulate" />
      <path
         inkscape:connector-curvature="0"
         id="path9144"
         d="m -41.193759,122.02352 c -0.58073,0.0649 -1.01902,0.33304 -1.375677,0.78479 -0.438163,0.64423 -0.481079,1.6003 0.08272,2.16803 0.426017,-0.0624 0.0067,-0.64348 0.07462,-0.92208 0.06276,-0.91494 0.910337,-1.59394 1.821987,-1.41178 0.32195,-0.008 0.81693,0.6535 1.00138,0.19149 -0.29949,-0.6015 -0.97653,-0.79222 -1.60502,-0.81049 z"
         style="opacity:0.98999999;color:#000000;fill:#def7ff;fill-opacity:1;fill-rule:nonzero;stroke:#b7bec8;stroke-width:0;stroke-linecap:round;stroke-linejoin:round;stroke-miterlimit:4;stroke-opacity:1;stroke-dasharray:none;stroke-dashoffset:0;marker:none;visibility:visible;display:inline;overflow:visible;enable-background:accumulate" />
      <path
         style="color:#000000;fill:#def7ff;fill-opacity:1;fill-rule:nonzero;stroke:#b7bec8;stroke-width:0;stroke-linecap:round;stroke-linejoin:round;stroke-miterlimit:4;stroke-opacity:1;stroke-dasharray:none;stroke-dashoffset:0;marker:none;visibility:visible;display:inline;overflow:visible;enable-background:accumulate"
         d="m -53.494334,129.34897 c 1.848702,0 3.349786,1.49157 3.349786,3.34027 0,0.0995 -0.01053,0.19767 -0.01902,0.29501 -0.171418,-1.68793 -1.597597,-3.00719 -3.330753,-3.00719 -1.733157,0 -3.149818,1.31926 -3.321236,3.00719 -0.0085,-0.0973 -0.01903,-0.19546 -0.01903,-0.29501 0,-1.8487 1.491568,-3.34027 3.340269,-3.34027 z"
         id="path9150"
         inkscape:connector-curvature="0" />
      <path
         style="color:#000000;fill:#def7ff;fill-opacity:1;fill-rule:nonzero;stroke:#b7bec8;stroke-width:0;stroke-linecap:round;stroke-linejoin:round;stroke-miterlimit:4;stroke-opacity:1;stroke-dasharray:none;stroke-dashoffset:0;marker:none;visibility:visible;display:inline;overflow:visible;enable-background:accumulate"
         d="m -56.376959,127.30554 c 0.387096,0.0178 0.778241,0.12653 1.151489,0.32356 0.763648,0.4031 1.298334,1.12244 1.551179,1.95086 -0.144199,0.0307 -0.277436,0.0666 -0.409207,0.10474 -0.290761,-0.63248 -0.761305,-1.16756 -1.379883,-1.49409 -1.399677,-0.73886 -3.054268,-0.15004 -3.835123,1.30376 0.03018,-0.0917 0.0668,-0.17642 0.10468,-0.26646 0.527707,-1.25422 1.65558,-1.97578 2.816865,-1.92232 z"
         id="path9152"
         inkscape:connector-curvature="0" />
      <path
         style="opacity:0.98999999;color:#000000;fill:#def7ff;fill-opacity:1;fill-rule:nonzero;stroke:#b7bec8;stroke-width:0;stroke-linecap:round;stroke-linejoin:round;stroke-miterlimit:4;stroke-opacity:1;stroke-dasharray:none;stroke-dashoffset:0;marker:none;visibility:visible;display:inline;overflow:visible;enable-background:accumulate"
         d="m -53.892661,127.06774 c 0.580733,0.0649 1.019023,0.33304 1.375676,0.78479 0.438164,0.64423 0.481079,1.6003 -0.08272,2.16803 -0.426015,-0.0624 -0.0067,-0.64348 -0.07462,-0.92208 -0.06276,-0.91494 -0.910338,-1.59394 -1.821988,-1.41178 -0.321952,-0.008 -0.81693,0.6535 -1.001382,0.19149 0.299491,-0.6015 0.976528,-0.79222 1.60502,-0.81049 z"
         id="path9154"
         inkscape:connector-curvature="0" />
    </g>
  </g>
</svg>
