<?xml version="1.0" encoding="UTF-8" standalone="no"?>
<!-- Created with Inkscape (http://www.inkscape.org/) -->

<svg
   xmlns:dc="http://purl.org/dc/elements/1.1/"
   xmlns:cc="http://creativecommons.org/ns#"
   xmlns:rdf="http://www.w3.org/1999/02/22-rdf-syntax-ns#"
   xmlns:svg="http://www.w3.org/2000/svg"
   xmlns="http://www.w3.org/2000/svg"
   xmlns:sodipodi="http://sodipodi.sourceforge.net/DTD/sodipodi-0.dtd"
   xmlns:inkscape="http://www.inkscape.org/namespaces/inkscape"
   width="600.28125"
   height="307.97592"
   viewBox="0 0 158.82441 81.485307"
   version="1.1"
   id="svg23489"
   inkscape:version="0.48.5 r10040"
   sodipodi:docname="cloud_04.svg"
   tags="cloud, cloudy,clouds,puffy,smoke,vapour,cloudy sky,sky,puffy clouds,pufy cloud,rain,sun,weather">
  <defs
     id="defs23483" />
  <sodipodi:namedview
     id="base"
     pagecolor="#7d848b"
     bordercolor="#666666"
     borderopacity="1.0"
     inkscape:pageopacity="1"
     inkscape:pageshadow="2"
     inkscape:zoom="0.60270762"
     inkscape:cx="637.88206"
     inkscape:cy="-30.564814"
     inkscape:document-units="px"
     inkscape:current-layer="layer1"
     showgrid="false"
     inkscape:pagecheckerboard="false"
     showborder="true"
     units="px"
     inkscape:window-width="1920"
     inkscape:window-height="1017"
     inkscape:window-x="-8"
     inkscape:window-y="-8"
     inkscape:window-maximized="1"
     inkscape:showpageshadow="false"
     guidetolerance="28"
     fit-margin-top="10"
     fit-margin-left="10"
     fit-margin-right="10"
     fit-margin-bottom="10">
    <inkscape:grid
       type="xygrid"
       id="grid24034"
       spacingx="1px"
       spacingy="1px"
       empspacing="8"
       visible="true"
       enabled="true"
       snapvisiblegridlinesonly="true"
       originx="-234.01167px"
       originy="-1240.6848px" />
  </sodipodi:namedview>
  <metadata
     id="metadata23486">
    <rdf:RDF>
      <cc:Work
         rdf:about="">
        <dc:format>image/svg+xml</dc:format>
        <dc:type
           rdf:resource="http://purl.org/dc/dcmitype/StillImage" />
        <dc:title></dc:title>
        <cc:license
           rdf:resource="" />
        <dc:creator>
          <cc:Agent>
            <dc:title>Robert Brooks</dc:title>
          </cc:Agent>
        </dc:creator>
      </cc:Work>
    </rdf:RDF>
  </metadata>
  <g
     inkscape:label="Layer 1"
     inkscape:groupmode="layer"
     id="layer1"
     transform="translate(-61.915602,112.74984)">
    <g
       id="g10430"
       transform="matrix(2.7237623,0,0,2.7237623,-101.70124,-405.03582)">
      <g
         id="g10206">
        <g
           id="g10201"
           transform="matrix(0.57231829,0.2614726,-0.2614726,0.57231829,39.285332,10.833002)">
          <path
             gds_zero_stroke="12"
             id="path10191"
             d="m 126.94127,150.42825 c -0.0734,-0.001 -0.15028,0.004 -0.22324,0.008 -0.29185,0.0164 -0.57877,0.0728 -0.85163,0.17363 -0.34108,0.1261 -0.65836,0.31579 -0.93431,0.56224 -0.16606,-0.18499 -0.37138,-0.33949 -0.60358,-0.46302 -0.13295,-0.0707 -0.26626,-0.12428 -0.40515,-0.16537 -0.97218,-0.28757 -2.04323,0.13595 -2.53834,1.0666 -0.2341,0.44003 -0.30734,0.92437 -0.23151,1.3808 -0.38115,0.034 -0.73291,0.24881 -0.92604,0.61185 -0.0362,0.0681 -0.0694,0.13572 -0.0909,0.2067 -7.2e-4,0.002 7e-4,0.006 0,0.008 -0.0203,0.0684 -0.0341,0.13732 -0.0413,0.20671 -0.0486,0.435 0.15843,0.87134 0.5457,1.11621 -0.73713,0.18557 -1.40081,0.66514 -1.78594,1.38906 -0.0373,0.0702 -0.0686,0.1433 -0.0992,0.21498 -0.0177,0.0414 -0.034,0.0822 -0.0496,0.12402 -0.0115,0.0308 -0.0228,0.06 -0.0331,0.0909 -0.0138,0.0413 -0.0296,0.0824 -0.0413,0.12402 -0.0175,0.0629 -0.0285,0.12675 -0.0413,0.19017 -0.24665,1.18287 0.29387,2.43033 1.41387,3.02617 1.33325,0.70929 2.9842,0.22683 3.72897,-1.07487 1.20006,0.0802 2.3916,-0.53128 2.9931,-1.66191 0.22668,-0.42609 0.34299,-0.87911 0.3638,-1.33118 0.96148,-0.0723 1.86184,-0.61545 2.34818,-1.52963 0.3229,-0.60696 0.40776,-1.27458 0.28939,-1.90169 -0.003,-0.0139 -0.005,-0.0274 -0.008,-0.0413 -0.0174,-0.0854 -0.0329,-0.17285 -0.0579,-0.25632 -0.002,-0.006 -0.006,-0.0107 -0.008,-0.0165 -0.0297,-0.0973 -0.0595,-0.19559 -0.0992,-0.28939 -0.0324,-0.0762 -0.0769,-0.14987 -0.11576,-0.22324 -0.0116,-0.0219 -0.0209,-0.0445 -0.0331,-0.0661 -0.0411,-0.0732 -0.0847,-0.14533 -0.13229,-0.21497 -0.0133,-0.0194 -0.0276,-0.0388 -0.0413,-0.0579 -0.0527,-0.0732 -0.10563,-0.13823 -0.16536,-0.20671 -0.0115,-0.0132 -0.0214,-0.0284 -0.0331,-0.0413 -0.008,-0.009 -0.017,-0.0164 -0.0248,-0.0248 -0.0671,-0.0726 -0.13979,-0.14056 -0.21498,-0.20671 -0.0217,-0.0191 -0.0437,-0.0394 -0.0662,-0.0579 -0.0638,-0.0528 -0.12931,-0.10106 -0.19844,-0.14882 -0.0112,-0.008 -0.0218,-0.0172 -0.0331,-0.0248 -0.0817,-0.0547 -0.16768,-0.10994 -0.25631,-0.15709 -0.0669,-0.0356 -0.13836,-0.0694 -0.20671,-0.0992 -0.002,-10e-4 -0.006,0.001 -0.008,0 -0.35314,-0.15316 -0.71632,-0.23268 -1.08313,-0.23978 z"
             style="opacity:0.98999999000000005;color:#000000;fill:#c3f1ff;fill-opacity:1;fill-rule:nonzero;stroke:#84d4f0;stroke-width:0;stroke-linecap:round;stroke-linejoin:round;stroke-miterlimit:4;stroke-opacity:1;stroke-dasharray:none;stroke-dashoffset:0;marker:none;visibility:visible;display:inline;overflow:visible;enable-background:accumulate"
             inkscape:connector-curvature="0" />
          <path
             inkscape:connector-curvature="0"
             id="path10095"
             d="m 120.22554,153.60528 c -0.28982,0.54478 -0.10144,1.21086 0.41175,1.53534 -0.73713,0.18557 -1.39833,0.66737 -1.78346,1.39129 -0.72302,1.35906 -0.20673,3.04914 1.15233,3.77216 1.33325,0.70929 2.97935,0.22132 3.72412,-1.08038 1.20006,0.0802 2.39795,-0.53028 2.99945,-1.66091 0.22668,-0.42609 0.3363,-0.879 0.35711,-1.33107 0.96148,-0.0723 1.86662,-0.6129 2.35296,-1.52708 0.75446,-1.41814 0.21603,-3.1807 -1.20211,-3.93515 -1.1062,-0.5885 -2.42354,-0.38315 -3.30658,0.40548 -0.16606,-0.18499 -0.36831,-0.3422 -0.60051,-0.46573 -1.06361,-0.56584 -2.3797,-0.1638 -2.94554,0.89981 -0.2341,0.44003 -0.30328,0.92413 -0.22745,1.38056 -0.38115,0.034 -0.73893,0.25264 -0.93207,0.61568 z"
             style="opacity:0.98999999;color:#000000;fill:#c3f1ff;fill-opacity:1;fill-rule:nonzero;stroke:#b7bec8;stroke-width:0;stroke-linecap:round;stroke-linejoin:round;stroke-miterlimit:4;stroke-opacity:1;stroke-dasharray:none;stroke-dashoffset:0;marker:none;visibility:visible;display:inline;overflow:visible;enable-background:accumulate" />
          <path
             sodipodi:nodetypes="scscscscscsscscsscs"
             inkscape:connector-curvature="0"
             style="opacity:0.76106196;color:#000000;fill:#def7ff;fill-opacity:1;fill-rule:nonzero;stroke:#b7bec8;stroke-width:0;stroke-linecap:round;stroke-linejoin:round;stroke-miterlimit:4;stroke-opacity:1;stroke-dasharray:none;stroke-dashoffset:0;marker:none;visibility:visible;display:inline;overflow:visible;enable-background:accumulate"
             d="m 120.22644,153.60491 c -0.28983,0.54479 -0.10144,1.21086 0.41174,1.53535 -0.73713,0.18557 -1.39833,0.66736 -1.78346,1.39129 -0.25631,0.48179 -0.35292,1.0021 -0.31541,1.50926 0.39515,-1.80083 2.22801,-2.44176 2.73723,-2.56094 0.59131,-0.1384 0.47783,-0.16506 0.47783,-0.16506 0,0 -1.11295,-0.52468 -0.91383,-1.32469 0.19912,-0.80002 0.97669,-0.55294 0.97669,-0.55294 0,0 -0.4471,-0.56086 0.61699,-1.70959 1.0641,-1.14872 1.89526,-0.0253 1.89526,-0.0253 0,0 -0.49014,1.4544 10e-4,2.23353 0.49144,0.77914 -0.57627,-0.22321 0.75982,-2.04735 1.0551,-1.44051 3.88244,-0.84372 4.64435,0.92473 -0.15526,-0.84315 -0.68106,-1.61038 -1.49638,-2.04412 -1.1062,-0.5885 -2.42353,-0.38315 -3.30658,0.40547 -0.16606,-0.18498 -0.3683,-0.34219 -0.60051,-0.46573 -1.06361,-0.56584 -2.3797,-0.16379 -2.94554,0.89981 -0.2341,0.44003 -0.30327,0.92414 -0.22744,1.38056 -0.38115,0.034 -0.73894,0.25265 -0.93207,0.61568 z"
             id="path10099" />
        </g>
        <g
           id="g10195"
           transform="matrix(0.810934,0,0,0.810934,-34.400006,2.218213)">
          <path
             gds_zero_stroke="12"
             id="path10193"
             d="m 152.83736,148.4108 c -0.14818,0 -0.29266,0.0305 -0.42168,0.0827 -0.0645,0.0261 -0.12407,0.0538 -0.1819,0.0909 -0.28912,0.18595 -0.48535,0.50469 -0.51263,0.86817 -0.0599,-0.0662 -0.12402,-0.13016 -0.19017,-0.19017 -0.002,-0.001 -0.007,10e-4 -0.008,0 -0.20145,-0.18196 -0.4283,-0.33998 -0.67799,-0.45475 -0.002,-0.001 -0.006,0.001 -0.008,0 -0.3364,-0.15351 -0.70586,-0.23978 -1.09968,-0.23978 -0.0655,0 -0.1342,0.004 -0.19843,0.008 -0.0248,0.002 -0.0498,0.006 -0.0744,0.008 -0.0908,0.009 -0.17686,0.0232 -0.26459,0.0413 -0.0112,0.002 -0.0219,0.006 -0.0331,0.008 -0.082,0.0181 -0.1608,0.0406 -0.23978,0.0662 -1.08117,0.34479 -1.86862,1.35168 -1.86862,2.54661 0,1.45057 1.15641,2.62632 2.59623,2.67064 0.47336,1.05383 1.53146,1.79421 2.76159,1.79421 0.46358,0 0.8971,-0.11136 1.28984,-0.29766 0.49502,0.78273 1.36183,1.30638 2.35645,1.30638 0.66424,0 1.2732,-0.23277 1.75286,-0.62012 0.008,-0.006 0.0173,-0.0103 0.0248,-0.0165 0.066,-0.0545 0.12944,-0.11341 0.19017,-0.17364 0.003,-0.003 0.005,-0.005 0.008,-0.008 0.0687,-0.0687 0.13714,-0.13945 0.19844,-0.21498 0.0501,-0.0619 0.0958,-0.13229 0.14056,-0.19844 0.0131,-0.0195 0.0287,-0.0381 0.0413,-0.0579 0.0367,-0.0573 0.0667,-0.11357 0.0992,-0.17364 0.003,-0.005 0.005,-0.0112 0.008,-0.0165 0.0824,-0.1547 0.15418,-0.31756 0.2067,-0.48783 0.0188,-0.0605 0.0349,-0.11974 0.0496,-0.1819 0.006,-0.0273 0.0109,-0.0551 0.0165,-0.0827 0.002,-0.0109 0.006,-0.0222 0.008,-0.0331 0.0157,-0.0819 0.0247,-0.16382 0.0331,-0.24805 0.01,-0.0939 0.0165,-0.18469 0.0165,-0.28112 0,-0.14769 -0.0108,-0.29676 -0.0331,-0.43822 -4.3e-4,-0.003 4.4e-4,-0.006 0,-0.008 -0.002,-0.0115 -0.006,-0.0216 -0.008,-0.0331 -0.0228,-0.12945 -0.0591,-0.25769 -0.0992,-0.38034 -0.0211,-0.0646 -0.0405,-0.13601 -0.0662,-0.19843 -0.001,-0.003 -0.007,-0.005 -0.008,-0.008 -0.13575,-0.32733 -0.32768,-0.61723 -0.57051,-0.86817 -0.0486,-0.0502 -0.0967,-0.10236 -0.14882,-0.14882 -0.20864,-0.18588 -0.44582,-0.33721 -0.7028,-0.45476 -0.0643,-0.0294 -0.13175,-0.0581 -0.19844,-0.0827 0.041,-0.11213 0.0702,-0.22704 0.0909,-0.34727 0.0208,-0.12021 0.0331,-0.24575 0.0331,-0.37207 0,-0.2893 -0.0597,-0.56819 -0.16537,-0.81855 -0.0528,-0.12518 -0.11506,-0.24426 -0.19016,-0.35553 -0.14902,-0.22076 -0.34197,-0.41257 -0.56224,-0.56224 -0.002,-0.001 -0.006,0.001 -0.008,0 -0.10924,-0.0737 -0.22461,-0.13786 -0.34727,-0.19017 -0.002,-9.7e-4 -0.006,9.5e-4 -0.008,0 -0.25036,-0.10571 -0.52099,-0.16537 -0.81029,-0.16537 -0.47875,0 -0.92047,0.15974 -1.2733,0.42995 -0.14928,-0.22889 -0.3827,-0.40642 -0.65319,-0.47956 -0.003,-6.8e-4 -0.006,6.7e-4 -0.008,0 -0.0912,-0.024 -0.18238,-0.0331 -0.28112,-0.0331 z"
             style="opacity:0.98999999000000005;color:#000000;fill:#c3f1ff;fill-opacity:1;fill-rule:nonzero;stroke:#84d4f0;stroke-width:0;stroke-linecap:round;stroke-linejoin:round;stroke-miterlimit:4;stroke-opacity:1;stroke-dasharray:none;stroke-dashoffset:0;marker:none;visibility:visible;display:inline;overflow:visible;enable-background:accumulate"
             inkscape:connector-curvature="0" />
          <g
             id="g10185">
            <path
               inkscape:connector-curvature="0"
               id="path10103"
               d="m 152.83665,148.41021 c -0.59272,0 -1.07256,0.46024 -1.11621,1.0418 -0.4899,-0.54136 -1.19675,-0.8847 -1.98437,-0.8847 -1.47865,0 -2.67891,1.20026 -2.67891,2.67891 0,1.45057 1.15641,2.62631 2.59622,2.67063 0.47336,1.05383 1.53147,1.79421 2.76159,1.79421 0.46358,0 0.89711,-0.11136 1.28985,-0.29766 0.49502,0.78273 1.36182,1.30638 2.35644,1.30638 1.54293,0 2.79466,-1.25173 2.79466,-2.79466 0,-1.20354 -0.76843,-2.22799 -1.83554,-2.62103 0.082,-0.22427 0.12402,-0.46669 0.12402,-0.71933 0,-1.1572 -0.93467,-2.09186 -2.09186,-2.09186 -0.47875,0 -0.92047,0.15973 -1.27331,0.42994 -0.20078,-0.30787 -0.5476,-0.51263 -0.94258,-0.51263 z"
               style="opacity:0.98999999;color:#000000;fill:#c3f1ff;fill-opacity:1;fill-rule:nonzero;stroke:#b7bec8;stroke-width:0;stroke-linecap:round;stroke-linejoin:round;stroke-miterlimit:4;stroke-opacity:1;stroke-dasharray:none;stroke-dashoffset:0;marker:none;visibility:visible;display:inline;overflow:visible;enable-background:accumulate" />
            <path
               style="opacity:0.98999999;color:#000000;fill:#def7ff;fill-opacity:1;fill-rule:nonzero;stroke:#b7bec8;stroke-width:0;stroke-linecap:round;stroke-linejoin:round;stroke-miterlimit:4;stroke-opacity:1;stroke-dasharray:none;stroke-dashoffset:0;marker:none;visibility:visible;display:inline;overflow:visible;enable-background:accumulate"
               d="m 152.83737,148.41081 c -0.59273,0 -1.07257,0.46023 -1.11621,1.04179 -0.48991,-0.54136 -1.19675,-0.8847 -1.98438,-0.8847 -0.52419,0 -1.00899,0.1528 -1.42213,0.41341 1.70535,-0.47733 3.07571,0.78778 3.40651,1.16583 0.38411,0.43899 0.35553,0.33072 0.35553,0.33072 0,0 -0.0572,-1.18046 0.71107,-1.37252 0.76823,-0.19206 0.9095,0.57877 0.9095,0.57877 0,0 0.2739,-0.63216 1.72806,-0.24804 1.45416,0.38411 0.87643,1.59577 0.87643,1.59577 0,0 -1.45443,0.24049 -1.89342,1.00872 -0.43899,0.76823 0.0318,-0.26948 2.19935,-0.13229 1.29856,0.0822 1.36283,2.36356 1.19062,4.20853 0.64494,-0.51203 1.05834,-1.30403 1.05834,-2.19108 0,-1.20354 -0.76844,-2.22799 -1.83555,-2.62103 0.082,-0.22427 0.12402,-0.4667 0.12402,-0.71934 0,-1.1572 -0.93466,-2.09186 -2.09186,-2.09186 -0.47875,0 -0.92047,0.15974 -1.27331,0.42995 -0.20078,-0.30787 -0.5476,-0.51263 -0.94257,-0.51263 z"
               id="path10107"
               inkscape:connector-curvature="0" />
          </g>
        </g>
        <path
           gds_zero_stroke="12"
           style="color:#000000;fill:#c3f1ff;fill-opacity:1;fill-rule:nonzero;stroke:#84d4f0;stroke-width:0;stroke-linejoin:round;stroke-miterlimit:4;stroke-opacity:1;stroke-dasharray:none;marker:none;visibility:visible;display:inline;overflow:visible;enable-background:accumulate"
           d="m 79.745409,108.85403 c -0.764438,0 -1.467492,0.21864 -2.042313,0.5946 -0.217149,-0.16205 -0.478226,-0.24991 -0.758328,-0.24991 -0.646294,0 -1.181313,0.50391 -1.327073,1.18058 -1.586263,0.19984 -2.810125,1.27701 -2.895432,2.61106 -0.846507,0.0862 -2.07591,1.15733 -1.352925,2.79203 -1.006881,0.23018 -1.391643,1.65121 -1.215047,2.21465 -1.63695,0.97207 -2.748937,2.88477 -2.748937,5.09286 0,2.53156 1.460782,4.68309 3.498647,5.46341 -0.05583,0.54207 3.139359,1.727 2.782331,2.70257 -0.218078,0.59589 -2.749347,1.13414 -2.749347,1.44554 0,0.17906 -1.276344,0.29457 -1.204949,0.45356 -3.682288,0.95107 -6.74739,1.77517 -6.74739,1.77517 l -1.37016,0.68939 c 0,0 54.676324,0.11438 55.133854,0 0.45753,-0.11437 -1.25732,-0.79906 -1.71485,-0.91344 -0.13671,-0.0342 -1.17291,-0.20759 -2.46456,-0.41363 0.10819,-0.17228 0.17234,-0.38812 0.17234,-0.62045 0,-0.4011 -0.18637,-0.74353 -0.46533,-0.91344 0.005,-0.0573 0.009,-0.11389 0.009,-0.17235 0,-1.16867 -1.04889,-2.11987 -2.34392,-2.11987 -1.10834,0 -2.03027,0.69596 -2.27497,1.62868 -0.63287,0.0971 -1.13348,0.6004 -1.20644,1.2409 -0.38121,-0.0586 -0.90386,-0.14289 -1.15472,-0.18096 0.004,-0.0362 0.009,-0.0751 0.009,-0.11203 0,-0.72647 -0.74716,-1.31846 -1.66315,-1.31846 -0.0764,0 -0.15036,0.0179 -0.22405,0.0259 -0.24006,-1.01925 -1.30699,-1.83794 -2.69723,-2.10264 -0.0762,-2.20995 -1.962248,-3.98122 -4.282829,-3.98122 -1.762599,0 -2.89432,1.46158 -3.554019,2.92079 -0.424219,-0.12732 -2.472761,-0.40387 -3.765688,1.14373 -0.341177,-0.60381 -2.559526,-2.33144 -3.148806,-2.40275 4.163675,-1.72673 5.265285,-7.50574 -0.04467,-10.70998 0.315492,-0.34621 0.508424,-0.78045 0.508424,-1.24953 0,-1.13708 -1.106379,-2.05955 -2.464564,-2.05955 -0.184887,0 -0.361048,0.0193 -0.534276,0.0517 -0.101875,-0.14463 -0.226973,-0.27998 -0.379163,-0.38778 0.111702,-0.30797 0.172347,-0.63214 0.172347,-0.97377 0,-1.73721 -1.563302,-3.14533 -3.49003,-3.14533 z"
           id="path9849-4"
           inkscape:connector-curvature="0"
           sodipodi:nodetypes="ccsccccscsscccsccscsscccssccsccccssccscc" />
        <path
           style="color:#000000;fill:#c3f1ff;fill-opacity:1;fill-rule:nonzero;stroke:none;stroke-width:10;marker:none;visibility:visible;display:inline;overflow:visible;enable-background:accumulate"
           d="m 79.745409,108.85403 c -0.764438,0 -1.467492,0.21864 -2.042313,0.5946 -0.217149,-0.16205 -0.478226,-0.24991 -0.758328,-0.24991 -0.646294,0 -1.181313,0.50391 -1.327073,1.18058 -1.586263,0.19984 -2.810125,1.27701 -2.895432,2.61106 -0.846507,0.0862 -2.07591,1.15733 -1.352925,2.79202 -1.006881,0.23019 -1.391643,1.65122 -1.215047,2.21466 -1.63695,0.97207 -2.748937,2.88476 -2.748937,5.09286 0,2.53156 1.460782,4.68309 3.498647,5.46341 -0.08994,0.87318 0.09979,1.76608 0.629067,2.60244 -0.02673,-9.4e-4 -0.05054,0 -0.07756,0 -1.010743,0 -1.835497,0.66957 -1.835497,1.4908 0,0.17906 0.04063,0.34944 0.112025,0.50843 -3.682288,0.95107 -6.74739,1.77517 -6.74739,1.77517 l -1.37016,0.68939 c 0,0 54.676324,0.11438 55.133854,0 0.45753,-0.11438 -1.25732,-0.79906 -1.71485,-0.91344 -0.13671,-0.0342 -1.17291,-0.20759 -2.46456,-0.41363 0.10819,-0.17228 0.17234,-0.38812 0.17234,-0.62045 0,-0.4011 -0.18637,-0.74353 -0.46533,-0.91344 0.005,-0.0573 0.009,-0.11389 0.009,-0.17235 0,-1.16867 -1.0489,-2.11987 -2.34392,-2.11987 -1.10835,0 -2.03027,0.69596 -2.27498,1.62868 -0.63287,0.0971 -1.13348,0.6004 -1.20643,1.2409 -0.38122,-0.0586 -0.90387,-0.14289 -1.15473,-0.18096 0.004,-0.0362 0.009,-0.0751 0.009,-0.11203 0,-0.72647 -0.74716,-1.31846 -1.66315,-1.31846 -0.0764,0 -0.15036,0.0179 -0.22405,0.0259 -0.24006,-1.01925 -1.30699,-1.83794 -2.69723,-2.10264 -0.0762,-2.20996 -1.962255,-3.98122 -4.282835,-3.98122 -1.762598,0 -3.278436,1.02259 -3.938134,2.4818 -0.42422,-0.12733 -0.889198,-0.1982 -1.378777,-0.1982 -0.476326,0 -0.929365,0.0687 -1.344308,0.18958 -0.341176,-0.60381 -0.858435,-1.01448 -1.447716,-1.08578 2.297964,-2.93396 2.905709,-7.23137 -2.404243,-10.43562 0.315492,-0.3462 0.508424,-0.78045 0.508424,-1.24952 0,-1.13708 -1.106379,-2.05955 -2.464564,-2.05955 -0.184887,0 -0.361048,0.0193 -0.534276,0.0517 -0.101875,-0.14463 -0.226973,-0.27999 -0.379163,-0.38778 0.111702,-0.30798 0.172347,-0.63214 0.172347,-0.97377 0,-1.73721 -1.563302,-3.14533 -3.49003,-3.14533 z"
           id="path9849"
           inkscape:connector-curvature="0"
           sodipodi:nodetypes="ccsccccsccsscccsccscsscccssccscscccssccscc" />
        <path
           style="color:#000000;fill:#a6e4f9;fill-opacity:1;fill-rule:nonzero;stroke:none;stroke-width:10;marker:none;visibility:visible;display:inline;overflow:visible;enable-background:accumulate"
           d="m 14.375,91.9375 c 0.789423,8.57429 6.004599,15.69174 13.09375,18.40625 -0.339931,3.30021 0.405833,6.65145 2.40625,9.8125 -0.101027,-0.004 -0.210377,0 -0.3125,0 -3.820131,0 -6.9375,2.55239 -6.9375,5.65625 0,0.67676 0.167661,1.30534 0.4375,1.90625 -13.9173074,3.59459 -25.5,6.71875 -25.5,6.71875 l -5.1875,2.59375 c 0,0 206.64575,0.4323 208.375,0 0.23057,-0.0576 0.31189,-0.15719 0.28125,-0.28125 -3.16464,-0.11492 -8.7115,-0.36428 -18.09375,-1.125 -15.34741,-1.24439 -36.71875,-6.65625 -36.71875,-6.65625 0,0 -3.74061,7.06274 -20.125,5.19617 -16.3844,-1.86658 -17.40625,-11.19617 -17.40625,-11.19617 -8.50329,7.6737 -27.16343,-1.10523 -16.4375,-17.15625 -0.440116,0.31049 -0.891075,0.63277 -1.40625,0.96875 -4.77014,3.11097 -8.71875,0.625 -8.71875,0.625 0,0 -3.300539,5.37805 -14.5,1.4375 C 56.42554,104.9032 57.03125,98.5 57.03125,98.5 c 0,0 -3.309206,5.78113 -11.8125,8.0625 -7.887717,2.11622 -24.504111,1.38467 -30.84375,-14.625 z m 79.28125,12.78125 c -0.402987,0.28664 -0.792779,0.60246 -1.1875,0.9375 0.46288,-0.33063 0.86805,-0.64024 1.25,-0.9375 -0.02038,-0.004 -0.04207,0.004 -0.0625,0 z"
           transform="matrix(0.26458336,0,0,0.26458336,63.632734,99.361735)"
           id="path9924"
           inkscape:connector-curvature="0"
           sodipodi:nodetypes="cccsscccscscsccscscsccccc" />
        <path
           style="color:#000000;fill:#def7ff;fill-opacity:1;fill-rule:nonzero;stroke:none;stroke-width:10;marker:none;visibility:visible;display:inline;overflow:visible;enable-background:accumulate"
           d="m 29.8125,120.03125 c 0.02469,0.0397 0.03741,0.0854 0.0625,0.125 -0.101027,-0.004 -0.210377,0 -0.3125,0 -3.820131,0 -6.9375,2.55239 -6.9375,5.65625 0,0.67676 0.167661,1.30534 0.4375,1.90625 -13.9173074,3.59459 -25.5,6.71875 -25.5,6.71875 l -5.1875,2.59375 c 0,0 1.4177182,-4e-5 1.4375,0 5.0187191,-2.01973 13.8474439,-3.81324 19.46875,-4.9375 6.221923,-1.24439 13.880373,-2.49719 19.6875,-1.875 4.09452,0.4387 6.063608,0.96858 6.90625,1.25 -1.486413,-0.57117 -9.820664,-3.74808 -12.09375,-3.9375 -2.488769,-0.2074 -2.903564,-3.52551 0,-4.5625 2.903564,-1.03698 7.6875,0.625 7.6875,0.625 0,0 -1.528427,-1.38107 -5.65625,-3.5625 z m 10.0625,11.4375 c 0.141039,0.0542 0.5625,0.21875 0.5625,0.21875 0,0 -0.21005,-0.10104 -0.5625,-0.21875 z"
           transform="matrix(0.26458336,0,0,0.26458336,63.632734,99.361735)"
           id="path9929"
           inkscape:connector-curvature="0" />
        <path
           style="color:#000000;fill:#def7ff;fill-opacity:1;fill-rule:nonzero;stroke:none;stroke-width:10;marker:none;visibility:visible;display:inline;overflow:visible;enable-background:accumulate"
           d="m 124.03125,99.40625 c -6.66179,0 -12.4129,3.89113 -14.90625,9.40625 -1.60335,-0.48125 -3.33712,-0.75 -5.1875,-0.75 -1.80029,0 -3.52546,0.26188 -5.09375,0.71875 -1.289484,-2.28212 -3.241546,-3.85552 -5.46875,-4.125 0.312559,-0.39906 0.610982,-0.80677 0.90625,-1.21875 -1.875919,1.7596 -2.868725,3.13402 -3.3125,3.84375 0.437479,-0.47393 1.372773,-1.01849 3.1875,-0.5 2.903564,0.82959 2.90625,2.6875 2.90625,2.6875 l -3.75,4.96875 c 0.904528,-1.02362 4.953809,-5.07567 12.03125,-4.53125 7.07743,0.54442 11.95949,8.06323 13.0625,9.9375 l -5.375,-11.40625 c 0,0 3.1073,-7.67346 15.34375,-4.5625 12.23645,3.11096 8.71875,9.96875 8.71875,9.96875 l -7.25,4.75 c 0,0 6.42578,-3.73597 13.0625,-0.625 6.63671,3.11096 5.8125,5.1875 5.8125,5.1875 l -4.375,4.15625 c 0,0 4.14185,-3.52844 7.875,-2.90625 3.73315,0.6222 3.95459,2.9148 3.125,2.5 -0.82959,-0.41479 -8.08533,0.82385 -6.21875,1.03125 1.86658,0.2074 25.29272,6.00574 23.21875,4.96875 -2.07397,-1.03699 -8.09375,-3.9375 -8.09375,-3.9375 0,0 0.64477,-1.6477 2.71875,-2.0625 2.07397,-0.41479 3.5,0.8125 3.5,0.8125 0,0 -3.11121,-5.16186 4.5625,-6.40625 7.6737,-1.24438 6.4375,5.1875 6.4375,5.1875 l -3.25,1.71875 c 0.50553,-0.2236 1.69452,-0.52633 3.25,0.5625 2.07397,1.45178 0.21875,2.6875 0.21875,2.6875 L 177.75,131.875 c 0,0 17.2157,2.07093 21.15625,3.9375 0.75832,0.35921 1.44586,0.66539 2.125,0.96875 -0.10575,-0.79083 -5.23691,-2.80924 -6.75,-3.1875 -0.5167,-0.12926 -4.43067,-0.78377 -9.3125,-1.5625 0.40891,-0.65114 0.625,-1.46565 0.625,-2.34375 0,-1.51597 -0.69566,-2.82657 -1.75,-3.46875 0.0189,-0.21657 0.0312,-0.4353 0.0312,-0.65625 0,-4.41702 -3.94919,-8 -8.84375,-8 -4.18904,0 -7.66886,2.63101 -8.59375,6.15625 -2.39195,0.36699 -4.28678,2.26671 -4.5625,4.6875 -1.44083,-0.22148 -3.42687,-0.54361 -4.375,-0.6875 0.0151,-0.13682 0.0312,-0.26667 0.0312,-0.40625 0,-2.74571 -2.81924,-5 -6.28125,-5 -0.28876,0 -0.56524,0.0635 -0.84375,0.0937 -0.90731,-3.85228 -4.93305,-6.93706 -10.1875,-7.9375 -0.288,-8.3526 -7.4168,-15.0625 -16.1875,-15.0625 z"
           transform="matrix(0.26458336,0,0,0.26458336,63.632734,99.361735)"
           id="path9934"
           inkscape:connector-curvature="0" />
        <path
           sodipodi:nodetypes="cscsc"
           inkscape:connector-curvature="0"
           id="path9573-8"
           d="m 74.942862,124.08686 c 0.987729,3.73143 5.048399,2.79857 5.926382,1.75597 0.87798,-1.04261 0.658487,-2.14009 0.658487,-2.14009 0,0 -0.329245,1.4816 -2.79857,1.7011 -3.013766,0.26789 -3.786299,-1.31698 -3.786299,-1.31698 z"
           style="opacity:0.92477878;color:#000000;fill:#a5e3f8;fill-opacity:1;fill-rule:nonzero;stroke:none;stroke-width:8;marker:none;visibility:visible;display:inline;overflow:visible;enable-background:accumulate" />
        <path
           style="opacity:0.92477878;color:#000000;fill:#a5e3f8;fill-opacity:1;fill-rule:nonzero;stroke:none;stroke-width:8;marker:none;visibility:visible;display:inline;overflow:visible;enable-background:accumulate"
           d="m 80.20959,121.98652 c -0.675386,2.42075 2.057521,3.05859 2.933118,2.71519 0.875597,-0.3434 1.116512,-1.0349 1.116512,-1.0349 0,0 -0.697592,0.753 -2.241749,0.16608 -1.884613,-0.71634 -1.807881,-1.84637 -1.807881,-1.84637 z"
           id="path9575-8"
           inkscape:connector-curvature="0"
           sodipodi:nodetypes="cscsc" />
        <path
           style="opacity:0.92477878;color:#000000;fill:#a5e3f8;fill-opacity:1;fill-rule:nonzero;stroke:none;stroke-width:8;marker:none;visibility:visible;display:inline;overflow:visible;enable-background:accumulate"
           d="m 91.587115,130.73755 c -0.45244,1.62166 1.378328,2.04895 1.964889,1.8189 0.58656,-0.23004 0.747948,-0.69328 0.747948,-0.69328 0,0 -0.467314,0.50444 -1.501742,0.11127 -1.262498,-0.47989 -1.211095,-1.23689 -1.211095,-1.23689 z"
           id="path9575-8-7"
           inkscape:connector-curvature="0"
           sodipodi:nodetypes="cscsc" />
        <path
           sodipodi:nodetypes="cscsc"
           inkscape:connector-curvature="0"
           id="path9978"
           d="m 100.17589,133.03242 c 0.5934,1.57555 2.32276,0.8383 2.65997,0.30605 0.33722,-0.53223 0.19364,-1.00129 0.19364,-1.00129 0,0 -0.0788,0.6831 -1.14567,0.97728 -1.30204,0.35899 -1.70794,-0.28204 -1.70794,-0.28204 z"
           style="opacity:0.92477878;color:#000000;fill:#a5e3f8;fill-opacity:1;fill-rule:nonzero;stroke:none;stroke-width:8;marker:none;visibility:visible;display:inline;overflow:visible;enable-background:accumulate" />
        <path
           sodipodi:nodetypes="cscsc"
           inkscape:connector-curvature="0"
           id="path9978-2"
           d="m 90.121562,130.39545 c 0.5934,1.57555 2.32276,0.8383 2.65997,0.30605 0.33722,-0.53223 0.19364,-1.00129 0.19364,-1.00129 0,0 -0.0788,0.68311 -1.14567,0.97728 -1.30204,0.35899 -1.70794,-0.28204 -1.70794,-0.28204 z"
           style="opacity:0.92477878;color:#000000;fill:#a5e3f8;fill-opacity:1;fill-rule:nonzero;stroke:none;stroke-width:8;marker:none;visibility:visible;display:inline;overflow:visible;enable-background:accumulate" />
        <path
           style="color:#000000;fill:#def7ff;fill-opacity:1;fill-rule:nonzero;stroke:none;stroke-width:10;marker:none;visibility:visible;display:inline;overflow:visible;enable-background:accumulate"
           d="m 24.625,70.34375 c 0.0084,0.03042 0.02209,0.06453 0.03125,0.09375 C 18.469353,74.111465 14.25,81.341926 14.25,89.6875 c 0,3.208225 0.634454,6.255969 1.75,9 -0.442017,-4.21653 -0.637641,-12.639432 3.6875,-19.5 5.262709,-8.347746 13.543556,-6.996274 15.53125,-6.53125 -0.940701,-0.263457 -6.070261,-1.685818 -10.59375,-2.3125 z"
           transform="matrix(0.26458336,0,0,0.26458336,63.632734,99.361735)"
           id="path9998"
           inkscape:connector-curvature="0" />
        <path
           style="color:#000000;fill:#def7ff;fill-opacity:1;fill-rule:nonzero;stroke:none;stroke-width:10;marker:none;visibility:visible;display:inline;overflow:visible;enable-background:accumulate"
           d="m 60.90625,35.875 c -2.889214,0 -5.546198,0.829049 -7.71875,2.25 -0.820721,-0.612472 -1.816347,-0.9375 -2.875,-0.9375 -2.442686,0 -4.449096,1.911257 -5,4.46875 -5.995324,0.755301 -10.64633,4.801672 -10.96875,9.84375 -3.199396,0.325795 -7.826291,4.384145 -5.09375,10.5625 -3.684871,0.842424 -5.172034,5.902744 -4.65625,8.15625 L 28.875,71.125 c 0,0 -2.471434,-2.064501 -0.125,-5.4375 2.346434,-3.372998 6.4375,-1.1875 6.4375,-1.1875 0,0 -4.680586,-3.79999 -2.1875,-7.90625 C 35.493086,52.487491 36.65625,54.25 36.65625,54.25 l 1.625,4.09375 c 0,0 -1.613401,-4.69173 1.90625,-9.53125 3.519651,-4.83952 10.40625,-3.21875 10.40625,-3.21875 0,0 -3.509826,-1.891512 -1.75,-4.53125 1.759825,-2.639738 3.0625,-1.625 3.0625,-1.625 l -0.4375,2.9375 c 0,0 5.12409,-6.012282 12.75,-3.8125 7.62591,2.199782 7.774108,10.699554 7.1875,10.40625 -0.586609,-0.293304 -8.936817,-2.344205 -14.65625,1.46875 0,0 8.038401,-2.493531 14.09375,1.90625 4.447087,3.231227 3.800446,10.404021 4.09375,8.9375 0.293305,-1.466521 0.28125,-5.84375 0.28125,-5.84375 0,0 5.160708,-1.478803 8.09375,2.1875 2.933042,3.666303 0,6 0,6 0,0 -7.340839,-1.17813 -11.59375,0.875 -4.252911,2.053129 -4.5625,2.8125 -4.5625,2.8125 0,0 9.711068,-5.760383 21.443237,4.065308 11.072019,9.272815 10.753101,20.865108 8.213013,27.934692 5.42203,-10.554803 4.5032,-23.81444 -12.53125,-34.09375 1.192411,-1.308472 1.9375,-2.945887 1.9375,-4.71875 0,-4.297625 -4.179203,-7.78125 -9.3125,-7.78125 -0.698785,0 -1.37653,0.06504 -2.03125,0.1875 -0.385039,-0.546633 -0.862294,-1.061355 -1.4375,-1.46875 0.422181,-1.164019 0.65625,-2.3963 0.65625,-3.6875 0,-6.565832 -5.905379,-11.875 -13.1875,-11.875 z"
           transform="matrix(0.26458336,0,0,0.26458336,63.632734,99.361735)"
           id="path10003"
           inkscape:connector-curvature="0"
           sodipodi:nodetypes="scscccccscsccscsccsscsscscscsccssccss" />
        <path
           style="color:#000000;fill:#def7ff;fill-opacity:1;fill-rule:nonzero;stroke:none;stroke-width:10;marker:none;visibility:visible;display:inline;overflow:visible;enable-background:accumulate"
           d="M 57.656481,64.68314 C 68.535316,59.850096 72.189038,71.265217 68.449409,75.664781 69.475974,73.171695 67.703801,67.894244 65.466415,66.195668 61.292224,63.02671 57.656481,64.68314 57.656481,64.68314 z"
           id="path10008"
           inkscape:connector-curvature="0"
           transform="matrix(0.26458336,0,0,0.26458336,63.632734,99.361735)"
           sodipodi:nodetypes="ccsc" />
        <path
           sodipodi:nodetypes="ccsc"
           inkscape:connector-curvature="0"
           id="path10010"
           d="m 80.602803,116.03367 c 0.418058,-1.73152 2.10572,-1.12463 2.286954,-0.27984 -0.20229,-0.34906 -0.990087,-0.61979 -1.395594,-0.5091 -0.756535,0.2065 -0.89136,0.78894 -0.89136,0.78894 z"
           style="color:#000000;fill:#def7ff;fill-opacity:1;fill-rule:nonzero;stroke:none;stroke-width:10;marker:none;visibility:visible;display:inline;overflow:visible;enable-background:accumulate" />
        <path
           style="color:#000000;fill:#def7ff;fill-opacity:1;fill-rule:nonzero;stroke:none;stroke-width:10;marker:none;visibility:visible;display:inline;overflow:visible;enable-background:accumulate"
           d="m 73.182295,116.03284 c -0.62319,-2.26573 1.712503,-2.64294 2.4612,-1.7835 -0.456423,-0.27375 -1.538696,-0.0831 -1.936099,0.30356 -0.74142,0.7215 -0.525101,1.47994 -0.525101,1.47994 z"
           id="path10012"
           inkscape:connector-curvature="0"
           sodipodi:nodetypes="ccsc" />
        <path
           sodipodi:nodetypes="ccsc"
           inkscape:connector-curvature="0"
           id="path10014"
           d="m 71.442331,120.23937 c -0.128387,-2.34637 2.234167,-2.21953 2.783516,-1.22083 -0.387967,-0.36434 -1.486051,-0.40761 -1.956431,-0.11405 -0.877596,0.54781 -0.827085,1.33488 -0.827085,1.33488 z"
           style="color:#000000;fill:#def7ff;fill-opacity:1;fill-rule:nonzero;stroke:none;stroke-width:10;marker:none;visibility:visible;display:inline;overflow:visible;enable-background:accumulate" />
        <path
           style="color:#000000;fill:#def7ff;fill-opacity:1;fill-rule:nonzero;stroke:none;stroke-width:10;marker:none;visibility:visible;display:inline;overflow:visible;enable-background:accumulate"
           d="m 75.945783,113.19059 c -0.190913,-3.48907 3.322234,-3.30046 4.139122,-1.81538 -0.576911,-0.54178 -2.209776,-0.60612 -2.909237,-0.1696 -1.304996,0.8146 -1.229885,1.98498 -1.229885,1.98498 z"
           id="path10016"
           inkscape:connector-curvature="0"
           sodipodi:nodetypes="ccsc" />
        <path
           sodipodi:nodetypes="ccsc"
           inkscape:connector-curvature="0"
           id="path10018"
           d="m 74.943736,115.25148 c 0.403382,-1.94133 2.302643,-1.32629 2.534386,-0.39288 -0.237504,-0.38113 -1.123645,-0.6542 -1.570821,-0.51665 -0.834338,0.25668 -0.963565,0.90953 -0.963565,0.90953 z"
           style="color:#000000;fill:#def7ff;fill-opacity:1;fill-rule:nonzero;stroke:none;stroke-width:10;marker:none;visibility:visible;display:inline;overflow:visible;enable-background:accumulate" />
        <path
           style="color:#000000;fill:#def7ff;fill-opacity:1;fill-rule:nonzero;stroke:none;stroke-width:10;marker:none;visibility:visible;display:inline;overflow:visible;enable-background:accumulate"
           d="m 95.788075,132.63464 c 0.75909,-3.65322 4.333145,-2.49583 4.769245,-0.73933 -0.44694,-0.71721 -2.114492,-1.23108 -2.955995,-0.97224 -1.570069,0.48303 -1.81325,1.71157 -1.81325,1.71157 z"
           id="path10020"
           inkscape:connector-curvature="0"
           sodipodi:nodetypes="ccsc" />
        <path
           sodipodi:nodetypes="ccsc"
           inkscape:connector-curvature="0"
           id="path10022"
           d="m 81.849515,119.54665 c 0.619347,-2.98069 3.535445,-2.03637 3.891263,-0.60323 -0.364662,-0.58517 -1.72523,-1.00445 -2.411819,-0.79326 -1.281031,0.39411 -1.479444,1.39649 -1.479444,1.39649 z"
           style="color:#000000;fill:#def7ff;fill-opacity:1;fill-rule:nonzero;stroke:none;stroke-width:10;marker:none;visibility:visible;display:inline;overflow:visible;enable-background:accumulate" />
      </g>
    </g>
  </g>
</svg>
