<?xml version="1.0" encoding="UTF-8" standalone="no"?>
<!-- Created with Inkscape (http://www.inkscape.org/) -->

<svg
   xmlns:dc="http://purl.org/dc/elements/1.1/"
   xmlns:cc="http://creativecommons.org/ns#"
   xmlns:rdf="http://www.w3.org/1999/02/22-rdf-syntax-ns#"
   xmlns:svg="http://www.w3.org/2000/svg"
   xmlns="http://www.w3.org/2000/svg"
   xmlns:sodipodi="http://sodipodi.sourceforge.net/DTD/sodipodi-0.dtd"
   xmlns:inkscape="http://www.inkscape.org/namespaces/inkscape"
   width="451.7912"
   height="219.1398"
   viewBox="0 0 119.53642 57.980747"
   version="1.1"
   id="svg23489"
   inkscape:version="0.48.5 r10040"
   sodipodi:docname="cloud_05.svg"
   tags="cloud, cloudy,clouds,puffy,smoke,vapour,cloudy sky,sky,puffy clouds,pufy cloud,rain,sun,weather">
  <defs
     id="defs23483" />
  <sodipodi:namedview
     id="base"
     pagecolor="#7d848b"
     bordercolor="#666666"
     borderopacity="1.0"
     inkscape:pageopacity="1"
     inkscape:pageshadow="2"
     inkscape:zoom="0.21308932"
     inkscape:cx="1669.2525"
     inkscape:cy="-797.74402"
     inkscape:document-units="px"
     inkscape:current-layer="layer1"
     showgrid="false"
     inkscape:pagecheckerboard="false"
     showborder="true"
     units="px"
     inkscape:window-width="1920"
     inkscape:window-height="1017"
     inkscape:window-x="-8"
     inkscape:window-y="-8"
     inkscape:window-maximized="1"
     inkscape:showpageshadow="false"
     guidetolerance="28"
     fit-margin-top="10"
     fit-margin-left="10"
     fit-margin-right="10"
     fit-margin-bottom="10">
    <inkscape:grid
       type="xygrid"
       id="grid24034"
       spacingx="1px"
       spacingy="1px"
       empspacing="8"
       visible="true"
       enabled="true"
       snapvisiblegridlinesonly="true"
       originx="-265.22998px"
       originy="-1211.0213px" />
  </sodipodi:namedview>
  <metadata
     id="metadata23486">
    <rdf:RDF>
      <cc:Work
         rdf:about="">
        <dc:format>image/svg+xml</dc:format>
        <dc:type
           rdf:resource="http://purl.org/dc/dcmitype/StillImage" />
        <dc:title></dc:title>
        <cc:license
           rdf:resource="" />
        <dc:creator>
          <cc:Agent>
            <dc:title>Robert Brooks</dc:title>
          </cc:Agent>
        </dc:creator>
      </cc:Work>
    </rdf:RDF>
  </metadata>
  <g
     inkscape:label="Layer 1"
     inkscape:groupmode="layer"
     id="layer1"
     transform="translate(-70.175447,81.396812)">
    <g
       id="g10407"
       transform="matrix(2.7237623,0,0,2.7237623,-264.97884,-400.0692)">
      <g
         id="g10247"
         transform="matrix(0.60212134,0,0,0.60212134,60.370934,39.170898)">
        <path
           gds_zero_stroke="12"
           id="path10249"
           d="m 152.83736,148.4108 c -0.14818,0 -0.29266,0.0305 -0.42168,0.0827 -0.0645,0.0261 -0.12407,0.0538 -0.1819,0.0909 -0.28912,0.18595 -0.48535,0.50469 -0.51263,0.86817 -0.0599,-0.0662 -0.12402,-0.13016 -0.19017,-0.19017 -0.002,-0.001 -0.007,10e-4 -0.008,0 -0.20145,-0.18196 -0.4283,-0.33998 -0.67799,-0.45475 -0.002,-0.001 -0.006,0.001 -0.008,0 -0.3364,-0.15351 -0.70586,-0.23978 -1.09968,-0.23978 -0.0655,0 -0.1342,0.004 -0.19843,0.008 -0.0248,0.002 -0.0498,0.006 -0.0744,0.008 -0.0908,0.009 -0.17686,0.0232 -0.26459,0.0413 -0.0112,0.002 -0.0219,0.006 -0.0331,0.008 -0.082,0.0181 -0.1608,0.0406 -0.23978,0.0662 -1.08117,0.34479 -1.86862,1.35168 -1.86862,2.54661 0,1.45057 1.15641,2.62632 2.59623,2.67064 0.47336,1.05383 1.53146,1.79421 2.76159,1.79421 0.46358,0 0.8971,-0.11136 1.28984,-0.29766 0.49502,0.78273 1.36183,1.30638 2.35645,1.30638 0.66424,0 1.2732,-0.23277 1.75286,-0.62012 0.008,-0.006 0.0173,-0.0103 0.0248,-0.0165 0.066,-0.0545 0.12944,-0.11341 0.19017,-0.17364 0.003,-0.003 0.005,-0.005 0.008,-0.008 0.0687,-0.0687 0.13714,-0.13945 0.19844,-0.21498 0.0501,-0.0619 0.0958,-0.13229 0.14056,-0.19844 0.0131,-0.0195 0.0287,-0.0381 0.0413,-0.0579 0.0367,-0.0573 0.0667,-0.11357 0.0992,-0.17364 0.003,-0.005 0.005,-0.0112 0.008,-0.0165 0.0824,-0.1547 0.15418,-0.31756 0.2067,-0.48783 0.0188,-0.0605 0.0349,-0.11974 0.0496,-0.1819 0.006,-0.0273 0.0109,-0.0551 0.0165,-0.0827 0.002,-0.0109 0.006,-0.0222 0.008,-0.0331 0.0157,-0.0819 0.0247,-0.16382 0.0331,-0.24805 0.01,-0.0939 0.0165,-0.18469 0.0165,-0.28112 0,-0.14769 -0.0108,-0.29676 -0.0331,-0.43822 -4.3e-4,-0.003 4.4e-4,-0.006 0,-0.008 -0.002,-0.0115 -0.006,-0.0216 -0.008,-0.0331 -0.0228,-0.12945 -0.0591,-0.25769 -0.0992,-0.38034 -0.0211,-0.0646 -0.0405,-0.13601 -0.0662,-0.19843 -0.001,-0.003 -0.007,-0.005 -0.008,-0.008 -0.13575,-0.32733 -0.32768,-0.61723 -0.57051,-0.86817 -0.0486,-0.0502 -0.0967,-0.10236 -0.14882,-0.14882 -0.20864,-0.18588 -0.44582,-0.33721 -0.7028,-0.45476 -0.0643,-0.0294 -0.13175,-0.0581 -0.19844,-0.0827 0.041,-0.11213 0.0702,-0.22704 0.0909,-0.34727 0.0208,-0.12021 0.0331,-0.24575 0.0331,-0.37207 0,-0.2893 -0.0597,-0.56819 -0.16537,-0.81855 -0.0528,-0.12518 -0.11506,-0.24426 -0.19016,-0.35553 -0.14902,-0.22076 -0.34197,-0.41257 -0.56224,-0.56224 -0.002,-0.001 -0.006,0.001 -0.008,0 -0.10924,-0.0737 -0.22461,-0.13786 -0.34727,-0.19017 -0.002,-9.7e-4 -0.006,9.5e-4 -0.008,0 -0.25036,-0.10571 -0.52099,-0.16537 -0.81029,-0.16537 -0.47875,0 -0.92047,0.15974 -1.2733,0.42995 -0.14928,-0.22889 -0.3827,-0.40642 -0.65319,-0.47956 -0.003,-6.8e-4 -0.006,6.7e-4 -0.008,0 -0.0912,-0.024 -0.18238,-0.0331 -0.28112,-0.0331 z"
           style="opacity:0.98999999000000005;color:#000000;fill:#c3f1ff;fill-opacity:1;fill-rule:nonzero;stroke:#84d4f0;stroke-width:0;stroke-linecap:round;stroke-linejoin:round;stroke-miterlimit:4;stroke-opacity:1;stroke-dasharray:none;stroke-dashoffset:0;marker:none;visibility:visible;display:inline;overflow:visible;enable-background:accumulate"
           inkscape:connector-curvature="0" />
        <g
           id="g10251">
          <path
             inkscape:connector-curvature="0"
             id="path10253"
             d="m 152.83665,148.41021 c -0.59272,0 -1.07256,0.46024 -1.11621,1.0418 -0.4899,-0.54136 -1.19675,-0.8847 -1.98437,-0.8847 -1.47865,0 -2.67891,1.20026 -2.67891,2.67891 0,1.45057 1.15641,2.62631 2.59622,2.67063 0.47336,1.05383 1.53147,1.79421 2.76159,1.79421 0.46358,0 0.89711,-0.11136 1.28985,-0.29766 0.49502,0.78273 1.36182,1.30638 2.35644,1.30638 1.54293,0 2.79466,-1.25173 2.79466,-2.79466 0,-1.20354 -0.76843,-2.22799 -1.83554,-2.62103 0.082,-0.22427 0.12402,-0.46669 0.12402,-0.71933 0,-1.1572 -0.93467,-2.09186 -2.09186,-2.09186 -0.47875,0 -0.92047,0.15973 -1.27331,0.42994 -0.20078,-0.30787 -0.5476,-0.51263 -0.94258,-0.51263 z"
             style="opacity:0.98999999;color:#000000;fill:#a6e4f9;fill-opacity:1;fill-rule:nonzero;stroke:#b7bec8;stroke-width:0;stroke-linecap:round;stroke-linejoin:round;stroke-miterlimit:4;stroke-opacity:1;stroke-dasharray:none;stroke-dashoffset:0;marker:none;visibility:visible;display:inline;overflow:visible;enable-background:accumulate" />
          <path
             style="opacity:0.98999999;color:#000000;fill:#c3f1ff;fill-opacity:1;fill-rule:nonzero;stroke:#b7bec8;stroke-width:0;stroke-linecap:round;stroke-linejoin:round;stroke-miterlimit:4;stroke-opacity:1;stroke-dasharray:none;stroke-dashoffset:0;marker:none;visibility:visible;display:inline;overflow:visible;enable-background:accumulate"
             d="m 152.83737,148.41081 c -0.59273,0 -1.07257,0.46023 -1.11621,1.04179 -0.48991,-0.54136 -1.19675,-0.8847 -1.98438,-0.8847 -0.52419,0 -1.00899,0.1528 -1.42213,0.41341 1.70535,-0.47733 3.07571,0.78778 3.40651,1.16583 0.38411,0.43899 0.35553,0.33072 0.35553,0.33072 0,0 -0.0572,-1.18046 0.71107,-1.37252 0.76823,-0.19206 0.9095,0.57877 0.9095,0.57877 0,0 0.2739,-0.63216 1.72806,-0.24804 1.45416,0.38411 0.87643,1.59577 0.87643,1.59577 0,0 -1.45443,0.24049 -1.89342,1.00872 -0.43899,0.76823 0.0318,-0.26948 2.19935,-0.13229 1.29856,0.0822 1.36283,2.36356 1.19062,4.20853 0.64494,-0.51203 1.05834,-1.30403 1.05834,-2.19108 0,-1.20354 -0.76844,-2.22799 -1.83555,-2.62103 0.082,-0.22427 0.12402,-0.4667 0.12402,-0.71934 0,-1.1572 -0.93466,-2.09186 -2.09186,-2.09186 -0.47875,0 -0.92047,0.15974 -1.27331,0.42995 -0.20078,-0.30787 -0.5476,-0.51263 -0.94257,-0.51263 z"
             id="path10255"
             inkscape:connector-curvature="0" />
        </g>
      </g>
      <path
         sodipodi:nodetypes="csccccccccsccsscscccccccscsc"
         inkscape:connector-curvature="0"
         id="path9900-4"
         d="m 136.86445,119.03364 c -0.89707,-0.0117 -1.62961,0.68906 -1.64102,1.5655 -0.004,0.26941 0.0633,0.52135 0.18163,0.74516 -0.21971,0.42611 -0.33382,0.96041 -0.29115,1.61686 -2.68854,0.42121 -2.18219,3.95202 0.1077,4.69448 0.007,0.12899 -0.32516,0.39419 0.40038,1.23194 -0.35593,-0.15504 -1.12164,0.63751 -0.70384,1.33012 -0.87946,-0.14959 -2.41386,1.06909 -1.49916,2.77158 -0.36418,-0.82155 -2.66793,0.31664 -2.49503,1.46436 -1.16863,0.51294 -4.3704,0.72654 -5.87469,1.52856 3.93108,0.54321 17.33061,-0.0982 28.86669,0.15135 3.02943,0.0655 7.81602,-0.0328 10.87474,0.12376 0.9796,-0.65947 -4.95727,-1.5824 -7.41204,-2.32591 0.001,-0.0149 3.8e-4,-0.0297 5.8e-4,-0.045 0.004,-0.2784 -0.22232,-0.50935 -0.51102,-0.5131 -0.0179,-2.4e-4 -0.0389,-0.003 -0.0563,-7.4e-4 -0.0593,-0.4438 -0.44244,-0.79356 -0.91245,-0.79968 -0.25778,-0.003 -0.48507,0.0982 -0.65616,0.26156 -1.04633,-0.90324 -2.75622,0.63471 -2.79765,0.63771 -0.41689,-1.07972 -0.55843,-3.63839 -2.03734,-3.57018 1.06893,-1.59345 -1.82443,-4.513 -3.21198,-3.11426 1.60727,-1.63006 -1.35,-6.57428 -5.00839,-5.17471 -0.479,-0.5847 -1.24103,-0.95811 -2.09792,-0.51125 -0.13331,-0.33928 -0.42349,-0.61728 -0.79978,-0.80948 -0.0408,-0.43661 -0.45257,-0.78244 -0.95761,-0.78901 -0.10651,-10e-4 -0.20815,0.0143 -0.3044,0.041 -0.29194,-0.30758 -0.70077,-0.50432 -1.16382,-0.51035 z"
         style="color:#000000;fill:#c3f1ff;fill-opacity:1;fill-rule:nonzero;stroke:#84d4f0;stroke-width:0;stroke-linejoin:round;stroke-miterlimit:4;stroke-opacity:1;stroke-dasharray:none;marker:none;visibility:visible;display:inline;overflow:visible;enable-background:accumulate"
         gds_zero_stroke="12" />
      <path
         sodipodi:nodetypes="csccccccccsccsscscsccccccscsc"
         inkscape:connector-curvature="0"
         id="path9900"
         d="m 136.86445,119.03364 c -0.89707,-0.0117 -1.62961,0.68907 -1.64102,1.56551 -0.004,0.26941 0.0633,0.52135 0.18163,0.74516 -0.21971,0.42611 -0.33382,0.96041 -0.29115,1.61685 -2.68854,0.42122 -2.18219,3.95202 0.1077,4.69449 0.007,0.12899 -0.32516,0.39418 0.40038,1.23194 -0.35593,-0.15504 -1.12164,0.6375 -0.70384,1.33012 -0.87946,-0.14959 -2.41386,1.06909 -1.49916,2.77158 -0.36418,-0.82155 -2.66793,0.31663 -2.49503,1.46436 -1.16863,0.51293 -4.3704,0.72653 -5.87469,1.52856 3.93108,0.54321 17.33061,-0.0982 28.86669,0.15135 3.02943,0.0655 7.81603,-0.0328 10.87475,0.12376 0.9796,-0.65947 -4.95728,-1.5824 -7.41205,-2.32591 0.001,-0.0149 3.8e-4,-0.0297 5.8e-4,-0.045 0.004,-0.2784 -0.22232,-0.50935 -0.51102,-0.5131 -0.0179,-2.4e-4 -0.0389,-0.003 -0.0563,-7.4e-4 -0.0593,-0.4438 -0.44244,-0.79356 -0.91245,-0.79968 -0.25778,-0.003 -0.48507,0.0982 -0.65616,0.26156 -0.15389,-0.43762 -0.61177,-0.76201 -1.16045,-0.76915 -0.0425,-5.5e-4 -0.0825,0.007 -0.12393,0.01 -0.41689,-1.07972 -2.0717,-2.24153 -3.55061,-2.17332 1.06893,-1.59346 -1.82443,-4.513 -3.21198,-3.11427 1.60727,-1.63005 -1.35,-6.57428 -5.00839,-5.1747 -0.479,-0.5847 -1.24103,-0.95811 -2.09792,-0.51125 -0.13331,-0.33928 -0.42349,-0.61729 -0.79978,-0.80948 -0.0408,-0.43661 -0.45257,-0.78245 -0.95761,-0.78902 -0.10651,-10e-4 -0.20815,0.0143 -0.3044,0.041 -0.29194,-0.30758 -0.70077,-0.50432 -1.16382,-0.51035 z"
         style="color:#000000;fill:#c3f1ff;fill-opacity:1;fill-rule:nonzero;stroke:none;stroke-width:10;marker:none;visibility:visible;display:inline;overflow:visible;enable-background:accumulate" />
      <path
         sodipodi:nodetypes="cscsc"
         inkscape:connector-curvature="0"
         id="path10267"
         d="m 143.11628,129.16268 c -0.16645,2.41208 2.42983,2.67744 3.16069,2.23612 0.73088,-0.44134 0.82196,-1.13646 0.82196,-1.13646 0,0 -0.61288,1.00479 -2.12157,0.63716 -1.84135,-0.44868 -1.86108,-1.73682 -1.86108,-1.73682 z"
         style="opacity:0.92477878;color:#000000;fill:#a5e3f8;fill-opacity:1;fill-rule:nonzero;stroke:none;stroke-width:8;marker:none;visibility:visible;display:inline;overflow:visible;enable-background:accumulate" />
      <path
         style="opacity:0.92477878;color:#000000;fill:#a5e3f8;fill-opacity:1;fill-rule:nonzero;stroke:none;stroke-width:8;marker:none;visibility:visible;display:inline;overflow:visible;enable-background:accumulate"
         d="m 141.77655,128.77639 c 0.5519,1.37807 2.06294,0.69654 2.3505,0.2212 0.28753,-0.47534 0.1524,-0.88621 0.1524,-0.88621 0,0 -0.0596,0.79761 -0.99463,1.07642 -1.14125,0.34027 -1.50827,-0.41141 -1.50827,-0.41141 z"
         id="path10269"
         inkscape:connector-curvature="0"
         sodipodi:nodetypes="cscsc" />
      <path
         style="color:#000000;fill:#def7ff;fill-opacity:1;fill-rule:nonzero;stroke:none;stroke-width:10;marker:none;visibility:visible;display:inline;overflow:visible;enable-background:accumulate"
         d="m 138.75632,122.52433 c 2.89475,-1.24117 3.82208,1.79141 2.81756,2.94248 0.28018,-0.65603 -0.17049,-2.05834 -0.75657,-2.51543 -1.09342,-0.85275 -2.06099,-0.42705 -2.06099,-0.42705 z"
         id="path10281"
         inkscape:connector-curvature="0"
         sodipodi:nodetypes="ccsc" />
      <path
         sodipodi:nodetypes="ccccccccccscscc"
         inkscape:connector-curvature="0"
         id="path10341"
         d="m 139.18575,127.25637 c 0,0 -1.16777,0.80096 -4.4839,0.16489 0.16229,0.0945 0.33105,0.1777 0.51784,0.23827 0.007,0.12899 -0.31982,0.39132 0.40571,1.22908 -0.35593,-0.15503 -1.12144,0.63779 -0.70364,1.33041 -0.87946,-0.14959 -2.41432,1.06462 -1.49962,2.76711 -0.36418,-0.82155 -2.67263,0.31641 -2.49974,1.46413 -1.16862,0.51294 -4.37011,0.73395 -5.87439,1.53597 3.34612,0.59662 32.03414,0.58164 39.74524,0.26933 0.0918,-0.0618 0.12286,-0.12277 0.10168,-0.18886 -0.35272,-0.0415 -2.15629,-0.25712 -4.16156,-0.45935 -2.20898,-0.22279 -7.51557,-1.33818 -7.51557,-1.33818 -0.24491,0.92813 -2.93564,1.97769 -5.4051,0.89781 -2.46946,-1.07988 -2.40211,-3.09579 -2.11688,-4.13981 -1.65984,2.30669 -8.61929,-0.22493 -6.51007,-3.7708 z"
         style="color:#000000;fill:#a6e4f9;fill-opacity:1;fill-rule:nonzero;stroke:none;stroke-width:8;marker:none;visibility:visible;display:inline;overflow:visible;enable-background:accumulate" />
      <path
         inkscape:connector-curvature="0"
         id="path10351"
         d="m 135.34904,128.52118 c 0.057,0.0909 0.13566,0.1896 0.22762,0.30065 0.006,-0.19242 -0.0335,-0.2442 -0.16985,-0.29163 -0.0126,-0.004 -0.0399,-0.005 -0.0578,-0.009 z m 0.1195,0.34885 c -0.3793,0.0573 -0.91235,0.74295 -0.54678,1.34899 -0.87946,-0.14959 -2.41432,1.06462 -1.49962,2.76711 -0.36418,-0.82155 -2.67263,0.31641 -2.49974,1.46413 -1.13454,0.49797 -4.17952,0.72562 -5.73299,1.47166 1.77207,-0.54394 6.17244,-0.92846 6.17244,-0.92846 0,0 -0.37792,-0.73695 0.91152,-1.41865 1.28944,-0.68171 2.21419,0.14458 2.21419,0.14458 0,0 -1.1844,-1.5705 -0.12523,-2.44923 1.05918,-0.87873 1.43943,-0.68412 1.43943,-0.68412 0,0 -0.38051,-0.23448 -0.2918,-1.08703 0.0319,-0.30709 0.0489,-0.48359 0.0577,-0.61942 -0.0302,-0.005 -0.0656,-0.0146 -0.0991,-0.01 z"
         style="color:#000000;fill:#def7ff;fill-opacity:1;fill-rule:nonzero;stroke:none;stroke-width:8;marker:none;visibility:visible;display:inline;overflow:visible;enable-background:accumulate" />
      <path
         inkscape:connector-curvature="0"
         id="path10356"
         d="m 133.351,124.47647 c -0.27985,1.19652 0.45382,2.7243 1.86869,3.18306 2.36604,0.30533 2.65241,-0.80361 2.75797,-1.60961 -0.22188,0.215 -0.74541,0.56784 -1.8439,0.62924 -1.45829,0.0815 -2.58068,-0.57543 -2.78276,-2.20269 z"
         style="color:#000000;fill:#a6e4f9;fill-opacity:1;fill-rule:nonzero;stroke:none;stroke-width:8;marker:none;visibility:visible;display:inline;overflow:visible;enable-background:accumulate" />
      <path
         sodipodi:nodetypes="cscsc"
         inkscape:connector-curvature="0"
         id="path10361"
         d="m 151.3056,133.30056 c 0.0476,1.48372 1.70057,1.35979 2.13329,1.01138 0.4327,-0.34842 0.44617,-0.78073 0.44617,-0.78073 0,0 -0.25996,0.54775 -1.23399,0.49013 -1.18882,-0.0704 -1.34547,-0.72078 -1.34547,-0.72078 z"
         style="opacity:0.92477878;color:#000000;fill:#a5e3f8;fill-opacity:1;fill-rule:nonzero;stroke:none;stroke-width:8;marker:none;visibility:visible;display:inline;overflow:visible;enable-background:accumulate" />
      <path
         sodipodi:nodetypes="cscsc"
         inkscape:connector-curvature="0"
         id="path10363"
         d="m 139.45301,125.54726 c -0.16069,1.66534 1.68742,1.76633 2.21667,1.43958 0.52921,-0.32675 0.60629,-0.80803 0.60629,-0.80803 0,0 -0.36658,0.57461 -1.43684,0.36905 -1.30621,-0.25088 -1.38612,-1.0006 -1.38612,-1.0006 z"
         style="opacity:0.92477878;color:#000000;fill:#a5e3f8;fill-opacity:1;fill-rule:nonzero;stroke:none;stroke-width:8;marker:none;visibility:visible;display:inline;overflow:visible;enable-background:accumulate" />
      <path
         sodipodi:nodetypes="sscccscscsccsccscsccccccscs"
         inkscape:connector-curvature="0"
         id="path10365"
         d="m 136.86176,119.0316 c -0.89707,-0.0117 -1.62969,0.68983 -1.6411,1.56628 -0.004,0.2694 0.0622,0.52274 0.18046,0.74655 -0.2197,0.42612 -0.32832,0.96056 -0.28565,1.61699 -1.66617,0.26104 -2.10302,1.71778 -1.65102,2.96359 -0.0536,-1.18102 0.55526,-2.1025 1.39341,-2.23101 0.9898,-0.15175 1.75132,0.1303 1.75132,0.1303 0,0 -0.98558,-0.28342 -0.92142,-0.996 0.0642,-0.71259 0.34566,-1.14488 0.34566,-1.14488 0,0 -0.8093,-0.778 0.24464,-1.64234 1.05394,-0.86433 1.37671,-0.31283 1.37671,-0.31283 l -0.72993,0.80912 c 0,0 0.94804,-0.64617 1.49602,-0.58416 0.54797,0.062 0.48208,0.44453 0.48208,0.44453 l -0.44464,0.49035 c 0,0 0.33354,-0.27305 0.76963,-0.0479 0.4361,0.22519 0.69379,1.33206 0.69379,1.33206 0,0 0.0651,-0.44342 0.99932,-0.54101 0.9342,-0.0976 0.97737,0.50886 0.97737,0.50886 l -1.0003,1.25212 c 0,0 2.25537,-3.15948 6.24606,0.4038 -0.87169,-1.61603 -2.79009,-3.01067 -4.95777,-2.18139 -0.479,-0.5847 -1.23672,-0.96198 -2.0936,-0.51512 -0.13331,-0.33928 -0.4236,-0.61204 -0.79989,-0.80423 -0.0408,-0.43661 -0.45214,-0.78316 -0.95719,-0.78974 -0.1065,-10e-4 -0.21017,0.0106 -0.30643,0.0374 -0.29193,-0.30758 -0.70448,-0.50531 -1.16753,-0.51134 z"
         style="color:#000000;fill:#def7ff;fill-opacity:1;fill-rule:nonzero;stroke:none;stroke-width:8;marker:none;visibility:visible;display:inline;overflow:visible;enable-background:accumulate" />
      <path
         sodipodi:nodetypes="cccc"
         inkscape:connector-curvature="0"
         id="path10370"
         d="m 147.07953,123.67945 c 0.91769,3.76282 -2.76767,2.9904 -2.76767,2.9904 0,0 1.27877,1.13558 3.04406,-0.0844 0.48487,-0.71717 0.32073,-1.8673 -0.27639,-2.906 z"
         style="color:#000000;fill:#a6e4f9;fill-opacity:1;fill-rule:nonzero;stroke:none;stroke-width:8;marker:none;visibility:visible;display:inline;overflow:visible;enable-background:accumulate" />
      <path
         inkscape:connector-curvature="0"
         id="path10375"
         d="m 147.49143,126.33914 c -0.80974,0.88429 -0.94802,1.68279 -0.94802,1.68279 0,0 0.45546,-1.0961 1.71602,-0.96993 1.26057,0.12617 1.79115,1.28617 1.727,1.99875 -0.0642,0.71259 -0.17612,0.8246 -0.17612,0.8246 l -1.93475,1.2565 c 0.2425,-0.12664 1.33015,-0.60504 3.29296,-0.14732 2.24321,0.52311 2.22014,2.22844 2.22014,2.22844 0,0 0.33626,-0.65639 0.88281,-0.48464 0.54655,0.17175 0.65635,0.39718 0.65635,0.39718 l -0.17676,0.87421 c 0,0 0.44751,-0.71357 1.05107,-0.70572 0.60356,0.008 0.54886,0.39579 0.54886,0.39579 0,0 0.38097,-0.21908 0.48499,0.2213 0.10403,0.44039 0.10714,0.66291 0.10714,0.66291 l 7.78046,1.31682 c -0.92537,-0.609 -5.31668,-1.3426 -7.34216,-1.95609 0.001,-0.0149 4.5e-4,-0.0343 6.5e-4,-0.0496 0.004,-0.2784 -0.22559,-0.50735 -0.51429,-0.5111 -0.0179,-2.4e-4 -0.0405,-0.003 -0.0579,-7.6e-4 -0.0593,-0.4438 -0.43746,-0.79124 -0.90748,-0.79736 -0.25777,-0.003 -0.48548,0.0927 -0.65657,0.25606 -0.15389,-0.43762 -0.61552,-0.76049 -1.1642,-0.76763 -0.0425,-5.5e-4 -0.0827,0.004 -0.12412,0.007 -0.41689,-1.07972 -2.07328,-2.23958 -3.55218,-2.17136 1.06893,-1.59346 -1.82166,-4.50828 -3.20921,-3.10955 0.12735,-0.12916 0.22332,-0.28498 0.29528,-0.45095 z"
         style="color:#000000;fill:#def7ff;fill-opacity:1;fill-rule:nonzero;stroke:none;stroke-width:8;marker:none;visibility:visible;display:inline;overflow:visible;enable-background:accumulate" />
      <path
         sodipodi:nodetypes="ccsc"
         inkscape:connector-curvature="0"
         id="path10380"
         d="m 135.88579,123.3587 c -0.68549,-2.31168 1.70299,-2.74625 2.48858,-1.8798 -0.47382,-0.27156 -1.58022,-0.054 -1.98005,0.35086 -0.7459,0.75529 -0.50853,1.52894 -0.50853,1.52894 z"
         style="color:#000000;fill:#def7ff;fill-opacity:1;fill-rule:nonzero;stroke:none;stroke-width:10;marker:none;visibility:visible;display:inline;overflow:visible;enable-background:accumulate" />
      <path
         sodipodi:nodetypes="cscsc"
         inkscape:connector-curvature="0"
         id="path10382"
         d="m 138.60462,126.25346 c -0.18304,1.04548 0.99208,1.19975 1.34577,1.01897 0.35367,-0.18079 0.42613,-0.48143 0.42613,-0.48143 0,0 -0.26183,0.34549 -0.93521,0.16314 -0.82186,-0.22257 -0.83669,-0.70068 -0.83669,-0.70068 z"
         style="opacity:0.92477878;color:#000000;fill:#a5e3f8;fill-opacity:1;fill-rule:nonzero;stroke:none;stroke-width:8;marker:none;visibility:visible;display:inline;overflow:visible;enable-background:accumulate" />
      <path
         style="opacity:0.92477878;color:#000000;fill:#a5e3f8;fill-opacity:1;fill-rule:nonzero;stroke:none;stroke-width:8;marker:none;visibility:visible;display:inline;overflow:visible;enable-background:accumulate"
         d="m 135.53308,125.33003 c 0.79505,1.47211 2.38559,0.52559 2.64279,-0.0407 0.25716,-0.5663 0.0528,-1.00881 0.0528,-1.00881 0,0 0.016,0.68139 -0.98708,1.10743 -1.22424,0.51996 -1.70855,-0.0579 -1.70855,-0.0579 z"
         id="path10384"
         inkscape:connector-curvature="0"
         sodipodi:nodetypes="cscsc" />
    </g>
  </g>
</svg>
