<?xml version="1.0" encoding="UTF-8" standalone="no"?>
<!-- Created with Inkscape (http://www.inkscape.org/) -->

<svg
   xmlns:dc="http://purl.org/dc/elements/1.1/"
   xmlns:cc="http://creativecommons.org/ns#"
   xmlns:rdf="http://www.w3.org/1999/02/22-rdf-syntax-ns#"
   xmlns:svg="http://www.w3.org/2000/svg"
   xmlns="http://www.w3.org/2000/svg"
   xmlns:sodipodi="http://sodipodi.sourceforge.net/DTD/sodipodi-0.dtd"
   xmlns:inkscape="http://www.inkscape.org/namespaces/inkscape"
   width="481.25204"
   height="382.86893"
   viewBox="0 0 127.33127 101.30075"
   version="1.1"
   id="svg23489"
   inkscape:version="0.48.5 r10040"
   sodipodi:docname="cloud_01.svg"
   tags="cloud, cloudy,clouds,puffy,smoke,vapour,cloudy sky,sky,puffy clouds,pufy cloud,rain,sun,weather">
  <defs
     id="defs23483" />
  <sodipodi:namedview
     id="base"
     pagecolor="#7d848b"
     bordercolor="#666666"
     borderopacity="1.0"
     inkscape:pageopacity="1"
     inkscape:pageshadow="2"
     inkscape:zoom="0.42617864"
     inkscape:cx="283.96979"
     inkscape:cy="-201.44771"
     inkscape:document-units="px"
     inkscape:current-layer="layer1"
     showgrid="false"
     inkscape:pagecheckerboard="false"
     showborder="true"
     units="px"
     inkscape:window-width="1920"
     inkscape:window-height="1017"
     inkscape:window-x="-8"
     inkscape:window-y="-8"
     inkscape:window-maximized="1"
     inkscape:showpageshadow="false"
     guidetolerance="28"
     fit-margin-top="10"
     fit-margin-left="10"
     fit-margin-right="10"
     fit-margin-bottom="10">
    <inkscape:grid
       type="xygrid"
       id="grid24034"
       spacingx="1px"
       spacingy="1px"
       empspacing="8"
       visible="true"
       enabled="true"
       snapvisiblegridlinesonly="true"
       originx="-293.08011px"
       originy="-1265.105px" />
  </sodipodi:namedview>
  <metadata
     id="metadata23486">
    <rdf:RDF>
      <cc:Work
         rdf:about="">
        <dc:format>image/svg+xml</dc:format>
        <dc:type
           rdf:resource="http://purl.org/dc/dcmitype/StillImage" />
        <dc:title></dc:title>
        <cc:license
           rdf:resource="" />
        <dc:creator>
          <cc:Agent>
            <dc:title>Robert Brooks</dc:title>
          </cc:Agent>
        </dc:creator>
      </cc:Work>
    </rdf:RDF>
  </metadata>
  <g
     inkscape:label="Layer 1"
     inkscape:groupmode="layer"
     id="layer1"
     transform="translate(-77.544128,139.02647)">
    <path
       gds_zero_stroke="12"
       style="opacity:0.98999999000000005;color:#000000;fill:#c3f1ff;fill-opacity:1;fill-rule:nonzero;stroke:#84d4f0;stroke-width:0;stroke-linecap:round;stroke-linejoin:round;stroke-miterlimit:4;stroke-opacity:1;stroke-dasharray:none;stroke-dashoffset:0;marker:none;visibility:visible;display:inline;overflow:visible;enable-background:accumulate"
       d="m 93.118273,-64.273391 c -0.930124,0.06074 -1.841906,0.43749 -2.544838,1.080979 -0.09656,0.08852 -0.181457,0.194205 -0.270252,0.292778 -0.0959,0.106499 -0.184426,0.219807 -0.270252,0.337801 -0.08264,0.11358 -0.175383,0.236422 -0.247726,0.360353 -0.119737,0.2051 -0.211364,0.415646 -0.292769,0.630579 -0.24424,0.644741 -0.307624,1.303238 -0.225201,1.959283 -0.182056,0.0082 -0.366498,0.06047 -0.540495,0.112492 -0.521998,0.156344 -0.987323,0.483468 -1.283679,0.990905 -0.296495,0.507709 -0.369764,1.091901 -0.247726,1.62151 0.06101,0.264749 0.161682,0.514736 0.315289,0.743178 0.153593,0.228524 0.347397,0.443919 0.585538,0.608053 -0.177181,0.03732 -0.345354,0.08035 -0.517975,0.135099 -0.172605,0.05475 -0.351439,0.108133 -0.517975,0.180313 -0.991703,0.43384 -1.86736,1.178681 -2.454756,2.184484 -0.11339,0.194204 -0.206515,0.406522 -0.292769,0.60808 -0.02533,0.05965 -0.04461,0.120118 -0.06758,0.180041 -0.0727,0.188484 -0.130142,0.370622 -0.180177,0.563029 -0.006,0.02451 -0.01689,0.04413 -0.02261,0.06755 -0.04734,0.193115 -0.08749,0.390697 -0.112601,0.585554 -0.01362,0.11113 -0.0158,0.226345 -0.02261,0.337801 -0.0038,0.05992 -0.0207,0.120391 -0.02261,0.180314 -0.003,0.11004 -0.0038,0.227706 0,0.337801 0.06188,1.76162 1.001426,3.460077 2.634921,4.414047 2.484894,1.451193 5.645207,0.642999 7.16158,-1.779134 2.278828,0.243504 4.602194,-0.820425 5.832861,-2.927691 0.463783,-0.79414 0.714449,-1.663156 0.788229,-2.522312 1.83609,-0.06483 3.59916,-1.021166 4.59422,-2.724988 0.65829,-1.127202 0.87269,-2.381713 0.69814,-3.580795 -0.005,-0.03132 -0.0174,-0.05883 -0.0226,-0.09016 -0.0161,-0.0986 -0.0237,-0.195022 -0.0451,-0.29275 -0.0166,-0.07654 -0.0253,-0.149535 -0.045,-0.225255 -0.0451,-0.171597 -0.11892,-0.351338 -0.18018,-0.517951 -0.0619,-0.167239 -0.12477,-0.334532 -0.20267,-0.495479 -0.0174,-0.03623 -0.0267,-0.07681 -0.0451,-0.112492 -0.0616,-0.120663 -0.13213,-0.244321 -0.20268,-0.360326 -0.0379,-0.06265 -0.0721,-0.119029 -0.1126,-0.180041 -0.0568,-0.08607 -0.11832,-0.164788 -0.18017,-0.247862 -0.1113,-0.149535 -0.23313,-0.289101 -0.36033,-0.427876 -0.0866,-0.09479 -0.17642,-0.18113 -0.27025,-0.270197 -0.039,-0.03704 -0.0724,-0.07654 -0.11261,-0.112492 -0.11382,-0.101869 -0.23672,-0.199379 -0.36033,-0.292777 -0.17432,-0.131558 -0.34718,-0.247318 -0.54049,-0.360327 -0.26413,-0.154165 -0.53409,-0.276952 -0.81075,-0.382852 -0.26973,-0.10432 -0.53388,-0.187939 -0.81074,-0.247862 -0.55373,-0.119573 -1.11341,-0.163426 -1.666538,-0.112491 -0.27656,0.02451 -0.564148,0.06918 -0.833264,0.135098 -0.799885,0.199107 -1.559643,0.592473 -2.207029,1.126031 -0.302153,-0.364848 -0.670727,-0.693143 -1.103513,-0.945881 -0.743378,-0.434141 -1.567428,-0.615026 -2.364673,-0.563002 z"
       id="path9807"
       inkscape:connector-curvature="0" />
    <g
       transform="matrix(1.0004381,-1.7130469,1.7130469,1.0004381,-256.63735,19.62685)"
       id="g9748">
      <path
         style="opacity:0.98999999;color:#000000;fill:#c3f1ff;fill-opacity:1;fill-rule:nonzero;stroke:#b7bec8;stroke-width:0;stroke-linecap:round;stroke-linejoin:round;stroke-miterlimit:4;stroke-opacity:1;stroke-dasharray:none;stroke-dashoffset:0;marker:none;visibility:visible;display:inline;overflow:visible;enable-background:accumulate"
         d="m 121.47609,129.91195 c -0.59273,0 -1.07257,0.46024 -1.11622,1.0418 -0.4899,-0.54136 -1.19674,-0.8847 -1.98437,-0.8847 -1.47864,0 -2.67891,1.20026 -2.67891,2.67891 0,1.45057 1.15641,2.62631 2.59623,2.67063 0.47336,1.05383 1.53146,1.79421 2.76159,1.79421 0.46358,0 0.8971,-0.11136 1.28984,-0.29766 0.49502,0.78273 1.36183,1.30638 2.35645,1.30638 1.54293,0 2.79466,-1.25173 2.79466,-2.79466 0,-1.20354 -0.76844,-2.22799 -1.83555,-2.62103 0.0819,-0.22427 0.12402,-0.46669 0.12402,-0.71933 0,-1.1572 -0.93466,-2.09186 -2.09186,-2.09186 -0.47875,0 -0.92047,0.15973 -1.27331,0.42994 -0.20078,-0.30787 -0.5476,-0.51263 -0.94257,-0.51263 z"
         id="path9750"
         inkscape:connector-curvature="0" />
      <path
         inkscape:connector-curvature="0"
         id="path9752"
         d="m 121.4768,129.91255 c -0.59273,0 -1.07257,0.46023 -1.11621,1.04179 -0.48991,-0.54136 -1.19675,-0.8847 -1.98438,-0.8847 -0.52419,0 -1.00899,0.1528 -1.42213,0.41341 1.70535,-0.47733 3.07571,0.78778 3.40651,1.16583 0.38411,0.43899 0.35553,0.33072 0.35553,0.33072 0,0 -0.0572,-1.18046 0.71107,-1.37252 0.76823,-0.19206 0.9095,0.57877 0.9095,0.57877 0,0 0.2739,-0.63216 1.72806,-0.24804 1.45416,0.38411 0.87643,1.59577 0.87643,1.59577 0,0 -1.45443,0.24049 -1.89342,1.00872 -0.43899,0.76823 0.0318,-0.26948 2.19935,-0.13229 1.29856,0.0822 1.36283,2.36356 1.19062,4.20853 0.64494,-0.51203 1.05834,-1.30403 1.05834,-2.19108 0,-1.20354 -0.76844,-2.22799 -1.83555,-2.62103 0.082,-0.22427 0.12402,-0.4667 0.12402,-0.71934 0,-1.1572 -0.93466,-2.09186 -2.09186,-2.09186 -0.47875,0 -0.92047,0.15974 -1.27331,0.42995 -0.20078,-0.30787 -0.5476,-0.51263 -0.94257,-0.51263 z"
         style="opacity:0.98999999;color:#000000;fill:#def7ff;fill-opacity:1;fill-rule:nonzero;stroke:#b7bec8;stroke-width:0;stroke-linecap:round;stroke-linejoin:round;stroke-miterlimit:4;stroke-opacity:1;stroke-dasharray:none;stroke-dashoffset:0;marker:none;visibility:visible;display:inline;overflow:visible;enable-background:accumulate" />
    </g>
    <path
       gds_zero_stroke="12"
       style="opacity:0.98999999000000005;color:#000000;fill:#c3f1ff;fill-opacity:1;fill-rule:nonzero;stroke:#84d4f0;stroke-width:0;stroke-linecap:round;stroke-linejoin:round;stroke-miterlimit:4;stroke-opacity:1;stroke-dasharray:none;stroke-dashoffset:0;marker:none;visibility:visible;display:inline;overflow:visible;enable-background:accumulate"
       d="m 124.58074,-133.49797 c -4.42791,0 -8.18674,2.84454 -9.57129,6.80125 -0.0923,0.26379 -0.17707,0.53765 -0.24773,0.81075 -0.0391,-7.2e-4 -0.0733,0 -0.11261,0 -0.78798,0 -1.54552,0.16249 -2.22954,0.45041 -0.34202,0.14396 -0.664,0.3134 -0.96839,0.51798 -1.52196,1.02287 -2.52232,2.75938 -2.52232,4.72934 0,0.9778 0.26481,1.89802 0.69814,2.70249 -3.16217,2.14842 -5.24732,5.7755 -5.24732,9.88658 0,0.30416 0.0225,0.6026 0.045,0.90083 0.0114,0.15155 0.028,0.30053 0.045,0.45041 0.005,0.0447 -0.006,0.0905 0,0.13513 0.0254,0.20381 0.0544,0.40764 0.0901,0.60805 0.004,0.0218 -0.004,0.0458 0,0.0675 0.0574,0.31236 0.1439,0.62014 0.22521,0.92335 0.0113,0.044 0.0107,0.0914 0.0225,0.13512 0.0646,0.2301 0.14733,0.45145 0.2252,0.67562 1.24286,3.705389 4.23397,6.599093 8.01737,7.67956 -0.25766,0.961753 -0.42789,1.951683 -0.42789,2.995252 0,0.01513 -7e-5,0.02991 0,0.04504 -1.6e-4,0.02248 0,0.04504 0,0.06753 0.002,0.196474 0.01,0.391665 0.0225,0.585538 0.002,0.03733 -0.002,0.07537 0,0.112603 0.0148,0.193671 0.043,0.394628 0.0675,0.585538 0.0538,0.452886 0.12505,0.892267 0.2252,1.328721 -6.15379,1.269584 -10.76489,6.712334 -10.76489,13.242168 3.6e-4,0.03714 0,0.07557 0,0.112603 0.002,0.273383 0.004,0.54145 0.0225,0.810745 7.2e-4,0.015 -7.2e-4,0.03005 0,0.04504 0.0426,0.57387 0.11318,1.137186 0.2252,1.689052 0.0646,0.317929 0.16243,0.636413 0.24773,0.945869 -0.9053,0.301627 -1.7708,0.700261 -2.56736,1.193596 -0.531039,0.32889 -1.036606,0.699595 -1.508884,1.103514 -2.125255,1.817643 -3.605379,4.367871 -4.076246,7.251664 -0.03466,0.204054 -0.04317,0.423194 -0.06753,0.630579 -0.02227,0.202874 -0.05542,0.402235 -0.06753,0.608059 -0.01067,0.157644 0.0043,0.31373 0,0.472934 -0.0014,0.08364 -0.02248,0.163666 -0.02248,0.247728 0,0.01511 -5.8e-5,0.02994 0,0.04504 -1.23e-4,0.02292 0,0.04462 0,0.06756 0.0022,0.20378 0.01067,0.406967 0.02248,0.608059 0.0022,0.03729 -0.0022,0.07541 0,0.112604 0.01117,0.173674 0.02674,0.346618 0.04504,0.517975 0.0036,0.02984 0.01902,0.06031 0.02248,0.09008 0.04273,0.386573 0.101873,0.774053 0.180166,1.148556 0.0097,0.0449 0.01232,0.0904 0.02248,0.135124 0.01449,0.06572 0.02948,0.137376 0.04504,0.202686 0.04634,0.186375 0.102781,0.357612 0.157645,0.540497 0.193166,0.667281 0.421551,1.320728 0.720662,1.936779 -0.381764,0.131757 1.577594,9.798179 0.211968,8.088402 0.664285,2.771076 -0.667355,-0.08752 -0.720403,1.445108 -0.949472,0.03949 -7.914304,-1.046727 -7.914304,-0.254984 0,0.02285 -0.0014,0.04491 0,0.06756 -5.34e-4,0.01476 0,0.03017 0,0.04504 0,0.453208 0.260987,0.875131 0.6531,1.148556 -2.969258,0.985399 -4.791625,1.757158 -4.729346,2.161986 -0.01535,0.03371 -0.0043,0.08284 0,0.112604 4.200502,0 116.715582,1.078146 116.319382,0 -0.008,-0.02067 -0.0437,-0.04149 -0.0675,-0.06756 0.0481,-0.01581 0.0738,-0.02819 0.0675,-0.04504 -0.14409,-0.392358 -2.02423,-1.202363 -4.90951,-2.229548 0.0147,-0.06567 0.0143,-0.135318 0.0225,-0.202687 0.006,-0.04524 0.0225,-0.08695 0.0225,-0.135124 0,-0.621535 -0.36402,-1.130041 -0.85579,-1.238638 0.003,-0.04576 0.0225,-0.08855 0.0225,-0.135124 0,-0.224963 -0.0433,-0.430992 -0.1126,-0.63058 -0.0693,-0.199588 -0.1664,-0.398745 -0.29277,-0.563017 -0.12637,-0.164272 -0.27917,-0.308878 -0.45041,-0.427893 -0.0856,-0.05951 -0.1757,-0.111315 -0.27025,-0.157645 -0.0945,-0.04633 -0.19081,-0.0807 -0.29277,-0.112603 0.0907,-0.339817 0.15765,-0.690112 0.15765,-1.058473 0,-0.284551 -0.0346,-0.564959 -0.0901,-0.833266 -0.11101,-0.53661 -0.33171,-1.025343 -0.63058,-1.463845 -0.29563,-0.43375 -0.66843,-0.831258 -1.10351,-1.126034 -0.005,-0.0035 -0.0173,0.0035 -0.0225,0 -0.25926,-0.174091 -0.53737,-0.315052 -0.83327,-0.427893 -0.002,-0.36169 -0.0345,-0.711845 -0.0901,-1.058473 -0.0858,-0.534569 -0.25019,-1.067033 -0.45042,-1.553928 -0.003,-0.0062 0.003,-0.01635 0,-0.02252 -0.13363,-0.322226 -0.29455,-0.627399 -0.47293,-0.923348 -0.003,-0.0053 0.003,-0.01724 0,-0.02252 -0.17948,-0.295898 -0.38814,-0.568018 -0.60806,-0.833265 -0.004,-0.0042 0.004,-0.01835 0,-0.02252 -0.67324,-0.807814 -1.53306,-1.449533 -2.4998,-1.891738 -0.16112,-0.0737 -0.32819,-0.141079 -0.49545,-0.202686 0.20537,-0.562457 0.31529,-1.168054 0.31529,-1.801656 0,-1.263076 -0.45283,-2.428646 -1.1936,-3.333063 -0.004,-0.0043 0.004,-0.01825 0,-0.02252 -0.96143,-1.165485 -2.42127,-1.891738 -4.05372,-1.891738 -0.68426,0 -1.33693,0.122993 -1.93678,0.360331 -0.70135,-0.502163 -1.51791,-0.863797 -2.3872,-1.058473 -0.007,-0.0016 -0.0155,0.0015 -0.0225,0 -0.41982,-0.09255 -0.83805,-0.149868 -1.28368,-0.157645 -0.0474,-0.425075 -0.11829,-0.848484 -0.20269,-1.261159 -0.16879,-0.825348 -0.41414,-1.621754 -0.72066,-2.387193 -0.30653,-0.765441 -0.67306,-1.492716 -1.10351,-2.184507 -0.43046,-0.691791 -0.92328,-1.354899 -1.46385,-1.959301 -0.26673,-0.298225 -0.54224,-0.581335 -0.83326,-0.855786 -0.59046,-0.555554 -1.23441,-1.061331 -1.91426,-1.508886 -1.01403,-0.667538 -2.13588,-1.209767 -3.31055,-1.59897 -0.006,-0.0022 -0.0157,0.0022 -0.0225,0 -0.39404,-0.129898 -0.78497,-0.242641 -1.1936,-0.33781 -0.40863,-0.09517 -0.81714,-0.189005 -1.23864,-0.247728 -0.42149,-0.05873 -0.85105,-0.09204 -1.28367,-0.112603 -0.0665,-0.177805 -0.14633,-0.346547 -0.22521,-0.517976 -0.007,-0.01552 -0.0153,-0.02958 -0.0225,-0.04504 -0.0726,-0.155035 -0.14283,-0.301205 -0.2252,-0.450414 -0.0158,-0.0286 -0.0289,-0.06171 -0.045,-0.09008 -0.0754,-0.132354 -0.16483,-0.278137 -0.24773,-0.405373 -0.0301,-0.0461 -0.0591,-0.08974 -0.0901,-0.135124 -0.54436,-0.799339 -1.2196,-1.493977 -2.02687,-2.026862 1.85074,-0.662983 3.29375,-2.174762 3.89608,-4.053725 0.0487,-0.144399 0.0967,-0.278795 0.13513,-0.427893 0.001,-0.0074 -10e-4,-0.01513 0,-0.02249 0.004,-0.01441 -0.004,-0.03063 0,-0.04504 0.0215,-0.09287 0.0502,-0.175856 0.0675,-0.270248 0.009,-0.04533 0.0144,-0.0895 0.0225,-0.135125 0.001,-0.0074 -0.001,-0.0152 0,-0.02248 0.004,-0.02148 -0.004,-0.04598 0,-0.06753 0.0154,-0.105174 0.0349,-0.208502 0.045,-0.31529 0.004,-0.03005 0.0195,-0.05989 0.0225,-0.09008 5.9e-4,-0.0073 -5.6e-4,-0.01521 0,-0.02248 0.002,-0.02948 -0.002,-0.06046 0,-0.09008 0.011,-0.134317 0.0201,-0.268793 0.0225,-0.405373 0,-0.03848 6.8e-4,-0.07429 0,-0.112603 0,-0.173226 -0.009,-0.348397 -0.0225,-0.517976 -0.002,-0.02313 -0.02,-0.04447 -0.0225,-0.06753 -0.16193,-1.787473 -1.04947,-3.343282 -2.38719,-4.391535 1.44998,-1.689449 2.41426,-3.801803 2.6124,-6.148153 0.0281,-0.29603 0.0419,-0.59778 0.045,-0.90083 0,-0.0375 3.7e-4,-0.0751 0,-0.1126 0,-0.17616 -0.0142,-0.34384 -0.0225,-0.51798 -0.01,-0.16435 -0.0277,-0.3332 -0.045,-0.49545 -0.003,-0.0294 0.003,-0.0607 0,-0.0901 -0.001,-0.0149 0.001,-0.0301 0,-0.045 -0.006,-0.0538 -0.0153,-0.10407 -0.0225,-0.15764 -0.0349,-0.2887 -0.078,-0.57444 -0.13513,-0.85579 -0.001,-0.007 0.001,-0.0155 0,-0.0225 -0.0185,-0.0904 -0.0468,-0.18068 -0.0675,-0.27025 -0.061,-0.26284 -0.12314,-0.53295 -0.20269,-0.78823 -0.0122,-0.0392 -0.0324,-0.0736 -0.045,-0.1126 -0.0966,-0.29834 -0.19438,-0.59172 -0.31529,-0.87831 -0.11438,-0.27004 -0.24782,-0.52977 -0.38285,-0.78822 -0.028,-0.0536 -0.0613,-0.10455 -0.0901,-0.15765 -0.11609,-0.21348 -0.23069,-0.42598 -0.36033,-0.63057 -0.0576,-0.0912 -0.11991,-0.18086 -0.18016,-0.27025 -0.10717,-0.15853 -0.22267,-0.32048 -0.33781,-0.47294 -0.0971,-0.1288 -0.19024,-0.25856 -0.29277,-0.38285 -0.089,-0.10785 -0.17721,-0.21097 -0.27025,-0.31529 -0.13644,-0.15318 -0.28316,-0.30516 -0.42789,-0.45041 -0.0149,-0.0149 -0.03,-0.0303 -0.045,-0.045 -0.73055,-0.72485 -1.56677,-1.32834 -2.47728,-1.82418 -0.21474,-0.11678 -0.42998,-0.23536 -0.6531,-0.33781 -0.0956,-0.044 -0.19569,-0.0939 -0.29277,-0.13512 -0.066,-0.028 -0.13602,-0.0409 -0.20269,-0.0675 -0.25752,-0.1035 -0.52143,-0.20889 -0.78822,-0.29277 -0.0222,-0.007 -0.0453,-0.0158 -0.0675,-0.0225 -1.00765,-0.30949 -2.06686,-0.47294 -3.17541,-0.47294 -0.36812,0 -0.72228,0.0318 -1.081,0.0675 0.006,-0.12802 0.0225,-0.25304 0.0225,-0.38285 0,-0.75516 -0.1245,-1.47671 -0.33781,-2.16199 -0.28443,-0.91371 -0.73373,-1.75643 -1.32872,-2.47728 -0.59499,-0.72085 -1.3349,-1.32962 -2.16199,-1.77913 -0.41355,-0.22476 -0.84934,-0.39829 -1.3062,-0.5405 -0.68529,-0.21331 -1.40683,-0.33781 -2.16199,-0.33781 -1.16006,0 -2.24673,0.28376 -3.22046,0.7657 -0.18715,-0.56974 -0.46443,-1.10225 -0.81074,-1.57644 -0.17315,-0.2371 -0.35606,-0.44576 -0.56302,-0.6531 -0.21039,-0.21207 -0.43418,-0.40843 -0.67562,-0.58554 -0.94711,-0.69478 -2.11338,-1.10352 -3.3781,-1.10352 -0.12135,0 -0.24089,0.0171 -0.36033,0.0225 -0.0994,-0.60131 -0.25051,-1.19562 -0.45042,-1.75662 -0.59787,-1.6778 -1.62792,-3.16193 -2.95021,-4.30145 -0.004,-0.004 -0.0181,0.004 -0.0225,0 -0.88547,-0.76064 -1.88389,-1.35898 -2.99526,-1.77913 -0.55568,-0.21008 -1.13662,-0.38544 -1.73409,-0.49546 -0.59746,-0.11001 -1.21723,-0.15764 -1.8467,-0.15764 z"
       id="path9756"
       inkscape:connector-curvature="0"
       sodipodi:nodetypes="sscsssscscccccccccsccccccccccscssccccscccccccccccccscsccccccccscscssscscscccsccccccscsccsccccsssscsccssccccccccccccccccccccccccccccccccccccccccccccccccccccccscsssssscscsscsccsss" />
    <g
       id="g9744"
       transform="matrix(2.5079194,0,0,2.5079194,-130.00448,-394.18594)">
      <path
         inkscape:connector-curvature="0"
         id="path9256"
         d="m 121.47609,129.91195 c -0.59273,0 -1.07257,0.46024 -1.11622,1.0418 -0.4899,-0.54136 -1.19674,-0.8847 -1.98437,-0.8847 -1.47864,0 -2.67891,1.20026 -2.67891,2.67891 0,1.45057 1.15641,2.62631 2.59623,2.67063 0.47336,1.05383 1.53146,1.79421 2.76159,1.79421 0.46358,0 0.8971,-0.11136 1.28984,-0.29766 0.49502,0.78273 1.36183,1.30638 2.35645,1.30638 1.54293,0 2.79466,-1.25173 2.79466,-2.79466 0,-1.20354 -0.76844,-2.22799 -1.83555,-2.62103 0.0819,-0.22427 0.12402,-0.46669 0.12402,-0.71933 0,-1.1572 -0.93466,-2.09186 -2.09186,-2.09186 -0.47875,0 -0.92047,0.15973 -1.27331,0.42994 -0.20078,-0.30787 -0.5476,-0.51263 -0.94257,-0.51263 z"
         style="opacity:0.98999999;color:#000000;fill:#c3f1ff;fill-opacity:1;fill-rule:nonzero;stroke:#b7bec8;stroke-width:0;stroke-linecap:round;stroke-linejoin:round;stroke-miterlimit:4;stroke-opacity:1;stroke-dasharray:none;stroke-dashoffset:0;marker:none;visibility:visible;display:inline;overflow:visible;enable-background:accumulate" />
      <path
         style="opacity:0.98999999;color:#000000;fill:#def7ff;fill-opacity:1;fill-rule:nonzero;stroke:#b7bec8;stroke-width:0;stroke-linecap:round;stroke-linejoin:round;stroke-miterlimit:4;stroke-opacity:1;stroke-dasharray:none;stroke-dashoffset:0;marker:none;visibility:visible;display:inline;overflow:visible;enable-background:accumulate"
         d="m 121.4768,129.91255 c -0.59273,0 -1.07257,0.46023 -1.11621,1.04179 -0.48991,-0.54136 -1.19675,-0.8847 -1.98438,-0.8847 -0.52419,0 -1.00899,0.1528 -1.42213,0.41341 1.70535,-0.47733 3.07571,0.78778 3.40651,1.16583 0.38411,0.43899 0.35553,0.33072 0.35553,0.33072 0,0 -0.0572,-1.18046 0.71107,-1.37252 0.76823,-0.19206 0.9095,0.57877 0.9095,0.57877 0,0 0.2739,-0.63216 1.72806,-0.24804 1.45416,0.38411 0.87643,1.59577 0.87643,1.59577 0,0 -1.45443,0.24049 -1.89342,1.00872 -0.43899,0.76823 0.0318,-0.26948 2.19935,-0.13229 1.29856,0.0822 1.36283,2.36356 1.19062,4.20853 0.64494,-0.51203 1.05834,-1.30403 1.05834,-2.19108 0,-1.20354 -0.76844,-2.22799 -1.83555,-2.62103 0.082,-0.22427 0.12402,-0.4667 0.12402,-0.71934 0,-1.1572 -0.93466,-2.09186 -2.09186,-2.09186 -0.47875,0 -0.92047,0.15974 -1.27331,0.42995 -0.20078,-0.30787 -0.5476,-0.51263 -0.94257,-0.51263 z"
         id="path9260"
         inkscape:connector-curvature="0" />
    </g>
    <path
       style="color:#000000;fill:#c3f1ff;fill-opacity:1;fill-rule:nonzero;stroke:none;stroke-width:8;marker:none;visibility:visible;display:inline;overflow:visible;enable-background:accumulate"
       d="m 124.57592,-133.49686 c -4.7231,0 -8.68839,3.24232 -9.81902,7.61199 -0.0391,-7.9e-4 -0.0733,0 -0.1126,0 -3.15193,0 -5.72026,2.54582 -5.72026,5.69776 0,0.9778 0.26481,1.898 0.69815,2.70246 -3.16217,2.14842 -5.24732,5.77552 -5.24732,9.88661 0,5.46348 3.68467,10.04248 8.69298,11.463031 -0.27474,0.995698 -0.45041,2.024763 -0.45041,3.10784 0,0.939153 0.12935,1.849679 0.33781,2.725015 -6.16443,1.261429 -10.78741,6.704813 -10.78741,13.24217 0,1.247728 0.17922,2.456098 0.49545,3.603292 -4.828297,1.608681 -8.310134,6.139197 -8.310134,11.508086 0,1.936296 0.455675,3.757757 1.261159,5.382454 -1.598862,0.529609 -2.747524,2.029476 -2.747524,3.805995 0,0.474316 0.09675,0.928803 0.247726,1.351231 -0.04799,0.03241 -0.0892,0.07736 -0.135126,0.112492 -0.331359,-0.114126 -0.684479,-0.180041 -1.058473,-0.180041 -1.659065,0 -3.009766,1.21488 -3.062814,2.747514 -0.949473,0.03949 -1.711571,0.672115 -1.711571,1.463858 0,0.495017 0.312391,0.947516 0.765701,1.216106 -3.0444,1.00534 -4.905106,1.796484 -4.841947,2.207037 4.200501,0 116.715583,1.078147 116.319393,0 -0.14409,-0.392358 -2.02425,-1.202378 -4.90953,-2.229563 0.0245,-0.109767 0.0449,-0.217901 0.0449,-0.337801 0,-0.621535 -0.364,-1.130034 -0.85578,-1.238631 0.003,-0.04576 0.0218,-0.08852 0.0218,-0.135098 0,-0.89985 -0.60312,-1.636464 -1.41878,-1.891735 0.0907,-0.339817 0.15771,-0.69012 0.15771,-1.058481 0,-2.276412 -1.86741,-4.121298 -4.1438,-4.121298 -0.94305,0 -1.80525,0.300404 -2.49981,0.833281 -0.37542,-0.13292 -0.77254,-0.202648 -1.19358,-0.202648 -1.33397,0 -2.48792,0.722396 -3.10787,1.80166 -0.14627,-0.06973 -0.29357,-0.141636 -0.4504,-0.202648 -0.42823,-2.256882 -1.6284,-3.973207 -3.10787,-4.301447 1.84159,-1.159914 3.08534,-3.2029 3.08534,-5.540106 0,-3.579922 -2.87583,-6.491297 -6.44091,-6.553508 -0.75797,-6.801207 -6.36519,-12.125018 -13.28721,-12.453967 -0.57918,-1.549113 -1.63825,-2.868912 -3.01777,-3.738418 2.52127,-0.838075 4.34649,-3.210336 4.34649,-6.013032 0,-2.050422 -0.96763,-3.862976 -2.47728,-5.022101 1.6646,-1.911917 2.70249,-4.382449 2.70249,-7.116569 0,-6.01199 -4.888,-10.9 -10.90002,-10.9 -0.36811,0 -0.72228,0.0319 -1.08099,0.0675 0.007,-0.12802 0.0226,-0.25304 0.0226,-0.38285 0,-4.0275 -3.26923,-7.29672 -7.2967,-7.29672 -1.16006,0 -2.24673,0.28376 -3.22046,0.76571 -0.74862,-2.279 -2.89803,-3.9186 -5.42748,-3.9186 -0.12135,0 -0.24089,0.0163 -0.36034,0.0218 -0.79506,-4.81044 -4.96346,-8.49032 -9.99918,-8.49032 z m 50.78415,77.516235 c -0.0509,0.05366 -0.1084,0.100235 -0.1577,0.157706 -0.008,-0.04413 -0.0136,-0.09152 -0.0218,-0.135098 0.0605,-0.0054 0.12011,-0.01362 0.18004,-0.02179 z"
       id="path9419"
       inkscape:connector-curvature="0" />
    <path
       style="opacity:0.95132745;color:#000000;fill:#a4e3f8;fill-opacity:1;fill-rule:nonzero;stroke:none;stroke-width:8;marker:none;visibility:visible;display:inline;overflow:visible;enable-background:accumulate"
       d="m 160.81653,-95.550599 c 4.26682,9.924189 -11.70288,9.015365 -11.71076,9.008277 0,0 6.37134,0.682956 9.30105,1.396283 2.44968,-0.877538 4.21137,-3.216632 4.21137,-5.967984 0,-1.726072 -0.68413,-3.295537 -1.80166,-4.436576 z"
       id="path9595"
       inkscape:connector-curvature="0"
       sodipodi:nodetypes="cccsc" />
    <path
       style="color:#000000;fill:#f1fcff;fill-opacity:1;fill-rule:nonzero;stroke:none;stroke-width:8;marker:none;visibility:visible;display:inline;overflow:visible;enable-background:accumulate"
       d="m 124.58074,-133.49797 c -4.7231,0 -8.68839,3.24232 -9.81902,7.612 -0.0391,-7.2e-4 -0.0733,0 -0.11261,0 -3.15193,0 -5.72025,2.54579 -5.72025,5.69773 0,0.9778 0.26481,1.89802 0.69814,2.70249 -3.16217,2.14842 -5.24732,5.7755 -5.24732,9.88658 0,3.8662 1.85321,7.28412 4.70682,9.458691 -7.73971,-11.452001 0.13917,-18.907411 4.37151,-17.870251 0,0 -3.17145,-2.69927 -0.63058,-5.83801 2.54088,-3.13873 5.02991,-1.50977 5.02991,-1.50977 0,0 -0.25771,-7.28024 6.56575,-6.59856 7.96479,0.79571 4.75787,7.03725 4.05373,8.55272 0.37937,-0.31004 1.49377,-0.68035 4.72935,-0.49546 5.23122,0.29892 5.2248,5.24732 5.2248,5.24732 0,0 2.3849,-3.45393 6.86881,-1.9593 4.4839,1.49464 2.99525,4.93203 2.99525,4.93203 l -4.39154,3.35559 c 1.21381,-0.92773 5.82163,-4.0259 13.08453,0.2252 8.48605,4.96704 1.46384,12.116136 1.46384,12.116136 l -3.9186,1.035952 c 0.47331,-0.0405 2.50913,0.03531 4.9996,3.783476 2.30853,3.474385 1.16104,5.295664 -0.85579,7.79216 1.5406,-0.635597 2.79494,-1.846241 3.44567,-3.378104 0.24661,-0.580544 0.41044,-1.214993 0.47293,-1.869217 0.002,-0.02948 -0.002,-0.06046 0,-0.09008 0.0109,-0.134317 0.0201,-0.268793 0.0225,-0.405373 0,-0.03755 6.5e-4,-0.0752 0,-0.112603 0,-0.218743 -0.0235,-0.440281 -0.045,-0.6531 -0.20585,-1.736407 -1.11129,-3.242173 -2.43223,-4.256411 0.0178,-0.02047 0.0274,-0.04699 0.045,-0.06753 -0.0166,-0.01297 -0.0283,-0.03221 -0.045,-0.04504 1.45652,-1.67293 2.43602,-3.772445 2.65744,-6.103105 0.0281,-0.29603 0.0419,-0.59778 0.045,-0.90083 0,-0.0375 3.8e-4,-0.0751 0,-0.1126 0,-0.34519 -0.036,-0.67637 -0.0675,-1.01343 -0.003,-0.0294 0.003,-0.0607 0,-0.0901 -0.0365,-0.35858 -0.0871,-0.71095 -0.15765,-1.05847 -0.001,-0.007 0.001,-0.0154 0,-0.0225 -0.0185,-0.0904 -0.0468,-0.18068 -0.0675,-0.27025 -1.11939,-4.82829 -5.44254,-8.44526 -10.60724,-8.44526 -0.36812,0 -0.72228,0.0319 -1.081,0.0675 0.006,-0.12802 0.0225,-0.25304 0.0225,-0.38285 0,-4.02749 -3.26923,-7.2967 -7.29671,-7.2967 -1.16006,0 -2.24672,0.28376 -3.22045,0.7657 -0.74862,-2.279 -2.89803,-3.9186 -5.42749,-3.9186 -0.12135,0 -0.24089,0.0171 -0.36033,0.0225 -0.79507,-4.81043 -4.96346,-8.4903 -9.99919,-8.4903 z m 3.87356,12.11614 c -0.20133,0.18077 -0.15765,0.33781 -0.15765,0.33781 0,0 0.0587,-0.126 0.15765,-0.33781 z"
       id="path9542"
       inkscape:connector-curvature="0"
       sodipodi:nodetypes="scsscsccscscscsccsccscsccccccccscccccccscsscscsccc" />
    <path
       inkscape:connector-curvature="0"
       style="color:#000000;fill:#f1fcff;fill-opacity:1;fill-rule:nonzero;stroke:none;stroke-width:8;marker:none;visibility:visible;display:inline;overflow:visible;enable-background:accumulate"
       d="m 160.18596,-83.434466 c -10.56529,1.509298 -15.42668,10.809932 -15.42668,10.809932 0,0 3.23676,-3.851478 8.94072,-5.945463 12.22866,-3.266665 16.65193,2.959043 17.97151,5.945463 1.41991,3.213465 0.31529,3.87356 0.31529,3.87356 -2.44265,0.86211 -4.85247,8.323867 -4.03121,7.611994 0.3435,-0.297742 0.62586,-6.390835 7.47687,-6.373356 3.64318,0.0093 5.29508,3.325387 5.58514,5.044635 0,-3.579923 -2.87584,-6.491311 -6.44092,-6.553522 -0.75797,-6.801207 -6.36519,-12.124995 -13.28721,-12.453943 -0.26435,-0.707047 -0.63186,-1.368806 -1.08099,-1.9593 -0.003,-0.0037 -0.0197,0.0037 -0.0225,0 z"
       id="path9547" />
    <path
       style="opacity:0.92477878;color:#000000;fill:#a4e3f8;fill-opacity:1;fill-rule:nonzero;stroke:none;stroke-width:8;marker:none;visibility:visible;display:inline;overflow:visible;enable-background:accumulate"
       d="m 104.46976,-106.15785 c 0.54279,4.86501 4.00754,8.830891 8.60291,10.134316 -0.27475,0.995696 -0.45042,2.02478 -0.45042,3.107856 0,0.939152 0.12935,1.849666 0.33781,2.725004 -0.0678,0.01384 -0.13527,0.03012 -0.20268,0.04504 1.02733,0.192201 3.21847,0.611201 3.46818,0.923349 0.24047,0.300581 -0.96891,-3.23666 -0.51797,-6.958895 8.81834,-0.523121 10.99009,-2.837607 10.99009,-2.837607 0,0 -17.48723,4.139008 -22.22792,-7.139064 z"
       id="path9549"
       inkscape:connector-curvature="0"
       sodipodi:nodetypes="ccsccsccc" />
    <path
       inkscape:connector-curvature="0"
       style="opacity:0.95132745;color:#000000;fill:#a2e2f8;fill-opacity:1;fill-rule:nonzero;stroke:none;stroke-width:8;marker:none;visibility:visible;display:inline;overflow:visible;enable-background:accumulate"
       d="m 127.66607,-99.311555 c 0,0 -4.77386,3.435548 -14.63845,1.193597 -6.86688,-1.560652 -3.98905,-0.03531 -2.34215,1.103514 0.75381,0.404731 1.54793,0.752861 2.3872,0.99091 -0.27475,0.995696 -0.45042,2.02478 -0.45042,3.107856 0,0.939152 0.12935,1.849666 0.33781,2.725004 -2.10532,0.430812 -4.02972,1.351544 -5.65269,2.634921 2.59368,-0.157724 5.49712,-0.478823 6.17067,-0.563017 1.19571,-0.149459 7.76137,0.317314 9.256,0.765703 1.49463,0.44839 3.73844,2.679963 3.73844,2.679963 0,0 8.97344,0.151487 9.57129,0.450413 0.59786,0.298928 -0.0143,0.444432 0.13513,-2.544838 0.13078,-2.615614 2.11792,-4.339092 2.63492,-4.751866 -0.64457,0.510481 -2.97587,1.916486 -7.25167,-0.472935 -5.08176,-2.839805 -3.89608,-7.319225 -3.89608,-7.319225 z"
       id="path9579" />
    <path
       inkscape:connector-curvature="0"
       style="color:#000000;fill:#f1fcff;fill-opacity:1;fill-rule:nonzero;stroke:none;stroke-width:8;marker:none;visibility:visible;display:inline;overflow:visible;enable-background:accumulate"
       d="m 112.91502,-90.528485 c 0.0167,0.07587 0.0271,0.149848 0.045,0.225207 -6.16443,1.261426 -10.78741,6.704811 -10.78741,13.242168 3.5e-4,0.03714 0,0.07557 0,0.112603 0.002,0.273384 0.004,0.54145 0.0225,0.810745 7.3e-4,0.015 -7.2e-4,0.03005 0,0.04504 0.0426,0.57387 0.11319,1.137186 0.22521,1.689052 0.005,0.02328 0.0177,0.04433 0.0225,0.06756 0.0613,0.294104 0.14615,0.591508 0.2252,0.878307 1.39402,3.274452 1.91426,1.779135 1.91426,1.779135 0,0 -4.3902,-9.449995 6.35084,-15.359113 5.35372,-2.945318 10.57343,-0.428968 13.73762,1.396283 -6.8647,3.178852 -4.29345,11.350429 -4.09877,11.350429 0,0 0.22909,-10.047723 9.12088,-10.314477 9.79226,-0.293767 10.83246,7.116539 10.83246,7.116539 0,0 -0.51736,-10.780328 -12.02605,-9.210964 -1.09967,0.149955 -2.06135,0.396513 -2.90517,0.698142 -1.61106,-1.32109 -3.9083,-2.764439 -7.1841,-3.89608 -0.82907,-0.286406 -3.84731,-0.570368 -5.49505,-0.63058 z"
       id="path9557" />
    <path
       style="opacity:0.92477878;color:#000000;fill:#a4e3f8;fill-opacity:1;fill-rule:nonzero;stroke:none;stroke-width:8;marker:none;visibility:visible;display:inline;overflow:visible;enable-background:accumulate"
       d="m 95.641649,-67.287129 c -0.824027,1.63505 -1.283679,3.490195 -1.283679,5.450007 0,1.936296 0.455674,3.757749 1.261158,5.382446 -1.598861,0.529608 -2.747524,2.029478 -2.747524,3.805997 0,0.474316 0.09675,0.928813 0.247727,1.351242 -0.048,0.03242 -0.0892,0.07747 -0.135124,0.112603 -0.33136,-0.114125 -0.684477,-0.180165 -1.058472,-0.180165 -1.659066,0 -3.009767,1.214891 -3.062815,2.747524 -0.949472,0.03949 -1.711572,0.672102 -1.711572,1.463845 0,0.495017 0.312392,0.947528 0.765703,1.216118 -3.044401,1.00534 -4.905108,1.796475 -4.841949,2.207028 4.200502,0 116.715578,1.078146 116.319378,0 -0.0115,-0.03139 -0.0567,-0.07597 -0.0901,-0.112604 -2.9202,-0.313364 -8.77697,-0.953503 -15.13391,-1.531407 -8.22049,-0.747318 -14.50332,-4.184714 -14.50332,-4.932032 0,-0.747317 -8.8253,7.032965 -21.38023,1.353353 -9.80667,-4.436346 -12.10804,-11.66783 -12.10804,-11.66783 0,0 -5.04101,13.552366 -22.57318,11.518103 -13.31712,-1.54519 -18.871817,-11.286005 -17.964071,-18.184228 z"
       id="path9568"
       inkscape:connector-curvature="0"
       sodipodi:nodetypes="cscsccscsccccssscsc" />
    <path
       style="opacity:0.92477878;color:#000000;fill:#a5e3f8;fill-opacity:1;fill-rule:nonzero;stroke:none;stroke-width:8;marker:none;visibility:visible;display:inline;overflow:visible;enable-background:accumulate"
       d="m 124.67773,-65.093906 c 2.69034,10.163516 13.75063,7.622637 16.14205,4.782831 2.39141,-2.839805 1.79356,-5.829075 1.79356,-5.829075 0,0 -0.89678,4.035514 -7.62264,4.633368 -8.20878,0.729669 -10.31297,-3.587124 -10.31297,-3.587124 z"
       id="path9573"
       inkscape:connector-curvature="0"
       sodipodi:nodetypes="cscsc" />
    <path
       sodipodi:nodetypes="cscsc"
       inkscape:connector-curvature="0"
       id="path9575"
       d="m 139.02305,-70.814752 c -1.83959,6.593575 5.6042,8.330873 7.98912,7.39556 2.38492,-0.93534 3.04111,-2.818822 3.04111,-2.818822 0,0 -1.90007,2.050993 -6.10599,0.452363 -5.13324,-1.95114 -4.92424,-5.029101 -4.92424,-5.029101 z"
       style="opacity:0.92477878;color:#000000;fill:#a5e3f8;fill-opacity:1;fill-rule:nonzero;stroke:none;stroke-width:8;marker:none;visibility:visible;display:inline;overflow:visible;enable-background:accumulate" />
    <path
       style="opacity:0.92477878;color:#000000;fill:#a5e3f8;fill-opacity:1;fill-rule:nonzero;stroke:none;stroke-width:8;marker:none;visibility:visible;display:inline;overflow:visible;enable-background:accumulate"
       d="m 124.78213,-106.74864 c -3.98597,5.56522 2.41308,9.746167 4.97408,9.683956 2.56103,-0.06237 3.82244,-1.60721 3.82244,-1.60721 0,0 -2.48746,1.276464 -5.89182,-1.665576 -4.15492,-3.5908 -2.9047,-6.41117 -2.9047,-6.41117 z"
       id="path9577"
       inkscape:connector-curvature="0"
       sodipodi:nodetypes="cscsc" />
    <path
       style="opacity:0.95132745;color:#000000;fill:#a4e3f8;fill-opacity:1;fill-rule:nonzero;stroke:none;stroke-width:8;marker:none;visibility:visible;display:inline;overflow:visible;enable-background:accumulate"
       d="m 178.99073,-67.061922 c 2.85708,8.032481 -9.39823,9.526668 -11.71076,9.886584 -2.84079,0.442133 -2.25207,1.058472 -2.25207,1.058472 0,0 7.66368,1.202543 13.12957,-0.855786 1.71322,-1.181515 2.86013,-3.144826 2.86013,-5.382446 0,-1.853174 -0.78891,-3.514438 -2.02687,-4.706824 z"
       id="path9584"
       inkscape:connector-curvature="0"
       sodipodi:nodetypes="csccsc" />
    <path
       inkscape:connector-curvature="0"
       style="opacity:0.95132745;color:#000000;fill:#f1fcff;fill-opacity:1;fill-rule:nonzero;stroke:none;stroke-width:8;marker:none;visibility:visible;display:inline;overflow:visible;enable-background:accumulate"
       d="m 153.1595,-86.15947 c 0,0 4.6218,1.635566 5.74278,6.418397 l 5.2248,0.517976 c 0,0 0.23954,-1.112707 0.0901,-1.486365 -0.0148,-0.03717 -0.11361,-0.170957 -0.15765,-0.247728 -0.89549,-0.226212 -1.81524,-0.359998 -2.77004,-0.405373 -0.57163,-1.528902 -1.61948,-2.823671 -2.97273,-3.693393 -3.21603,-0.943137 -5.15724,-1.103514 -5.15724,-1.103514 z"
       id="path9600" />
    <path
       style="color:#000000;fill:#a4e3f8;fill-opacity:1;fill-rule:nonzero;stroke:none;stroke-width:8;marker:none;visibility:visible;display:inline;overflow:visible;enable-background:accumulate"
       d="m 161.73988,-107.98202 c 2.6995,9.981314 -9.34256,10.525853 -9.68389,10.832452 -0.32198,0.289209 5.86896,0.260166 8.69298,1.531407 -0.19081,-0.189145 -0.3943,-0.353853 -0.60806,-0.517976 1.6646,-1.911917 2.70249,-4.382423 2.70249,-7.116543 0,-1.69612 -0.40993,-3.29667 -1.10352,-4.72934 z"
       id="path9605"
       inkscape:connector-curvature="0"
       sodipodi:nodetypes="csccsc" />
    <path
       style="opacity:0.92477878;color:#000000;fill:#a5e3f8;fill-opacity:1;fill-rule:nonzero;stroke:none;stroke-width:8;marker:none;visibility:visible;display:inline;overflow:visible;enable-background:accumulate"
       d="m 143.1648,-87.967345 c 4.64194,6.720856 12.05766,1.95212 13.05812,-0.753175 1.00047,-2.705268 -0.22343,-4.732945 -0.22343,-4.732945 0,0 0.40679,3.185876 -4.35211,5.393376 -5.80817,2.694209 -8.48258,0.09288 -8.48258,0.09288 z"
       id="path9573-6"
       inkscape:connector-curvature="0"
       sodipodi:nodetypes="cscsc" />
    <path
       sodipodi:nodetypes="cscsc"
       inkscape:connector-curvature="0"
       id="path9628"
       d="m 120.58384,-110.19325 c -0.25129,4.86917 4.99272,5.31349 6.45094,4.39809 1.4582,-0.91535 1.61755,-2.3201 1.61755,-2.3201 0,0 -0.96753,1.65509 -4.0223,0.96658 -3.7283,-0.84031 -4.04629,-3.04443 -4.04629,-3.04443 z"
       style="opacity:0.92477878;color:#000000;fill:#a5e3f8;fill-opacity:1;fill-rule:nonzero;stroke:none;stroke-width:8;marker:none;visibility:visible;display:inline;overflow:visible;enable-background:accumulate" />
    <path
       style="opacity:0.92477878;color:#000000;fill:#a5e3f8;fill-opacity:1;fill-rule:nonzero;stroke:none;stroke-width:8;marker:none;visibility:visible;display:inline;overflow:visible;enable-background:accumulate"
       d="m 164.02358,-52.477621 c 1.8164,4.524659 6.76232,2.726077 7.70141,1.283001 0.9391,-1.443022 0.4939,-2.784856 0.4939,-2.784856 0,0 -0.18318,1.908376 -3.24472,2.566138 -3.73656,0.802802 -4.95063,-1.06412 -4.95063,-1.06412 z"
       id="path9630"
       inkscape:connector-curvature="0"
       sodipodi:nodetypes="cscsc" />
    <path
       inkscape:connector-curvature="0"
       style="color:#000000;fill:#f1fcff;fill-opacity:1;fill-rule:nonzero;stroke:none;stroke-width:8;marker:none;visibility:visible;display:inline;overflow:visible;enable-background:accumulate"
       d="m 104.10943,-73.79561 c -0.48498,0.0066 -0.9851,0.06286 -1.48637,0.135125 0.0172,0.06603 0.027,0.137046 0.0451,0.202686 -4.828304,1.608681 -8.31014,6.139185 -8.31014,11.508074 0,1.210185 0.165305,2.367719 0.495455,3.468187 0.04396,0.07886 0.06471,0.16945 0.09008,0.247727 0.04014,-4.159342 3.141661,-9.520339 6.576042,-11.327908 7.97395,-4.196821 13.80518,0.878307 13.80518,0.878307 0,0 -4.84238,-5.198522 -11.2153,-5.112198 z m -8.940716,17.431017 c -0.119853,0.05667 -0.225192,0.118162 -0.33781,0.180165 -0.106233,0.06348 -0.215759,0.107479 -0.31529,0.180166 -0.0083,0.006 -0.01427,0.01639 -0.02248,0.02252 0.604859,1.179236 1.126171,1.179042 0.698141,-0.247728 -0.01275,-0.0424 -0.01074,-0.09217 -0.02248,-0.135124 z"
       id="path9632" />
    <path
       inkscape:connector-curvature="0"
       style="color:#000000;fill:#ffffff;fill-opacity:1;fill-rule:nonzero;stroke:none;stroke-width:8;marker:none;visibility:visible;display:inline;overflow:visible;enable-background:accumulate"
       d="m 178.22503,-57.152817 c -1.46566,0.504558 -1.86922,0.923348 -1.86922,0.923348 0,0 1.80503,-0.121455 2.54484,1.463845 0.7398,1.5853 0.63058,2.229549 0.63058,2.229549 l -3.49071,0.945869 c 0,0 3.27724,-0.942657 6.55353,1.171076 1.52123,0.981437 2.31099,1.685067 2.74752,2.161986 -0.74986,-1.178622 -2.02947,-3.319463 -1.80166,-3.851038 0.31707,-0.739807 2.54484,-0.427893 2.54484,-0.427893 0,0 1.58835,-1.474302 3.49071,-0.945869 1.90236,0.528433 1.68905,2.837607 1.68905,2.837607 l -1.4188,0.788224 c 0.57545,-0.09428 1.30958,0.08867 2.04938,1.013431 1.69098,2.113733 1.57645,2.634921 1.57645,2.634921 0,0 0.48856,-0.0176 1.03595,-0.06756 0.006,-0.04524 0.0225,-0.08695 0.0225,-0.135124 0,-0.621535 -0.36402,-1.130041 -0.85579,-1.238638 0.003,-0.04576 0.0225,-0.08855 0.0225,-0.135124 0,-0.899849 -0.60314,-1.636468 -1.4188,-1.891738 0.0907,-0.339817 0.15765,-0.690111 0.15765,-1.058473 0,-2.276412 -1.86743,-4.121287 -4.14381,-4.121287 -0.94305,0 -1.80524,0.300389 -2.4998,0.833266 -0.37541,-0.13292 -0.77256,-0.202686 -1.1936,-0.202686 -1.33396,0 -2.48789,0.722391 -3.10785,1.801655 -0.14627,-0.06973 -0.29358,-0.141674 -0.45041,-0.202686 -0.42824,-2.256882 -1.62839,-3.973212 -3.10786,-4.301452 0.1054,-0.06639 0.1914,-0.153145 0.29277,-0.225207 z m 11.62068,7.296704 c -0.73986,0.12122 -1.23864,0.698142 -1.23864,0.698142 l 1.23864,-0.698142 z m -4.50414,1.598969 c 0.29374,0.461695 0.51798,0.788225 0.51798,0.788225 0,0 -0.0144,-0.237998 -0.51798,-0.788225 z"
       id="path9637" />
    <path
       inkscape:connector-curvature="0"
       id="path9132-5"
       d="m 134.55528,-119.36769 c -5.03542,0 -9.12402,4.06268 -9.12402,9.0981 0,0.27101 0.0287,0.5384 0.0518,0.80353 0.4669,-4.59752 4.35147,-8.19087 9.07218,-8.19087 4.72071,0 8.57935,3.59335 9.04625,8.19087 0.0232,-0.26502 0.0518,-0.53238 0.0518,-0.80353 0,-5.03542 -4.06268,-9.0981 -9.0981,-9.0981 z"
       style="color:#000000;fill:#f1fcff;fill-opacity:1;fill-rule:nonzero;stroke:#b7bec8;stroke-width:0;stroke-linecap:round;stroke-linejoin:round;stroke-miterlimit:4;stroke-opacity:1;stroke-dasharray:none;stroke-dashoffset:0;marker:none;visibility:visible;display:inline;overflow:visible;enable-background:accumulate" />
    <path
       style="color:#000000;fill:#f1fcff;fill-opacity:1;fill-rule:nonzero;stroke:#b7bec8;stroke-width:0;stroke-linecap:round;stroke-linejoin:round;stroke-miterlimit:4;stroke-opacity:1;stroke-dasharray:none;stroke-dashoffset:0;marker:none;visibility:visible;display:inline;overflow:visible;enable-background:accumulate"
       d="m 126.21507,-123.25374 c -2.90718,0 -5.26771,2.34557 -5.26771,5.25275 0,0.15634 0.0166,0.31083 0.0299,0.46391 0.26957,-2.65436 2.5123,-4.72897 5.23778,-4.72897 2.72548,0 4.95325,2.07461 5.22281,4.72897 0.0134,-0.15308 0.0299,-0.30738 0.0299,-0.46391 0,-2.90718 -2.34557,-5.25275 -5.25275,-5.25275 z"
       id="path9662"
       inkscape:connector-curvature="0" />
  </g>
</svg>
